<svg width="77" height="30" viewBox="0 0 77 30" fill="none" xmlns="http://www.w3.org/2000/svg">
<path d="M11.92 19.14C11.2573 19.14 10.6647 18.9767 10.142 18.65C9.61933 18.3233 9.204 17.8753 8.896 17.306C8.59733 16.7367 8.448 16.088 8.448 15.36C8.448 14.6227 8.602 13.9693 8.91 13.4C9.22733 12.8307 9.64733 12.3827 10.17 12.056C10.6927 11.7293 11.276 11.566 11.92 11.566C12.2933 11.566 12.648 11.622 12.984 11.734C13.32 11.846 13.6233 12.0047 13.894 12.21C14.1647 12.406 14.398 12.6393 14.594 12.91C14.79 13.1807 14.93 13.4747 15.014 13.792L14.734 13.61L14.804 11.72H15.476V19H14.776V17.18L15.014 16.914C14.93 17.222 14.79 17.5113 14.594 17.782C14.398 18.0527 14.1647 18.2907 13.894 18.496C13.6233 18.7013 13.32 18.86 12.984 18.972C12.648 19.084 12.2933 19.14 11.92 19.14ZM12.018 18.44C12.55 18.44 13.026 18.3093 13.446 18.048C13.8753 17.7773 14.2113 17.4133 14.454 16.956C14.706 16.4893 14.832 15.9527 14.832 15.346C14.832 14.7487 14.7107 14.2213 14.468 13.764C14.2253 13.2973 13.8893 12.9333 13.46 12.672C13.04 12.4013 12.5593 12.266 12.018 12.266C11.4673 12.266 10.9773 12.4013 10.548 12.672C10.128 12.9333 9.79667 13.2973 9.554 13.764C9.31133 14.2213 9.19 14.7487 9.19 15.346C9.19 15.934 9.30667 16.4613 9.54 16.928C9.78267 17.3947 10.114 17.7633 10.534 18.034C10.9633 18.3047 11.458 18.44 12.018 18.44ZM21.0959 19.14C20.7226 19.14 20.3679 19.084 20.0319 18.972C19.7052 18.86 19.4019 18.706 19.1219 18.51C18.8512 18.3047 18.6179 18.0667 18.4219 17.796C18.2352 17.5253 18.0999 17.236 18.0159 16.928L18.2679 17.152L18.1979 19H17.5259V8.64H18.2259V13.54L18.0159 13.778C18.0999 13.47 18.2352 13.1807 18.4219 12.91C18.6179 12.6393 18.8512 12.406 19.1219 12.21C19.4019 12.0047 19.7052 11.846 20.0319 11.734C20.3679 11.622 20.7226 11.566 21.0959 11.566C21.7399 11.566 22.3232 11.7293 22.8459 12.056C23.3686 12.3827 23.7839 12.8307 24.0919 13.4C24.4092 13.9693 24.5679 14.6227 24.5679 15.36C24.5679 16.088 24.4139 16.7367 24.1059 17.306C23.8072 17.8753 23.3966 18.3233 22.8739 18.65C22.3512 18.9767 21.7586 19.14 21.0959 19.14ZM20.9979 18.44C21.5579 18.44 22.0479 18.3047 22.4679 18.034C22.8972 17.7633 23.2286 17.3947 23.4619 16.928C23.7046 16.4613 23.8259 15.934 23.8259 15.346C23.8259 14.7487 23.7046 14.2213 23.4619 13.764C23.2192 13.2973 22.8832 12.9333 22.4539 12.672C22.0339 12.4013 21.5486 12.266 20.9979 12.266C20.4472 12.266 19.9572 12.4013 19.5279 12.672C19.1079 12.9333 18.7766 13.2973 18.5339 13.764C18.2912 14.2213 18.1699 14.7487 18.1699 15.346C18.1699 15.9527 18.2912 16.4893 18.5339 16.956C18.7859 17.4133 19.1219 17.7773 19.5419 18.048C19.9712 18.3093 20.4566 18.44 20.9979 18.44ZM29.2215 19.14C28.4935 19.14 27.8448 18.9767 27.2755 18.65C26.7155 18.3233 26.2722 17.8707 25.9455 17.292C25.6282 16.7133 25.4695 16.0553 25.4695 15.318C25.4695 14.59 25.6282 13.946 25.9455 13.386C26.2722 12.8167 26.7155 12.3733 27.2755 12.056C27.8448 11.7293 28.4935 11.566 29.2215 11.566C29.9495 11.566 30.5935 11.7293 31.1535 12.056C31.7228 12.3733 32.1662 12.8167 32.4835 13.386C32.8008 13.946 32.9595 14.59 32.9595 15.318C32.9595 16.0553 32.8008 16.7133 32.4835 17.292C32.1662 17.8707 31.7228 18.3233 31.1535 18.65C30.5935 18.9767 29.9495 19.14 29.2215 19.14ZM29.2215 18.44C29.8002 18.44 30.3135 18.3047 30.7615 18.034C31.2188 17.7633 31.5735 17.3947 31.8255 16.928C32.0868 16.4613 32.2175 15.9247 32.2175 15.318C32.2175 14.73 32.0868 14.2073 31.8255 13.75C31.5735 13.2833 31.2188 12.9193 30.7615 12.658C30.3135 12.3967 29.8002 12.266 29.2215 12.266C28.6335 12.266 28.1108 12.3967 27.6535 12.658C27.2055 12.9193 26.8508 13.2833 26.5895 13.75C26.3375 14.2073 26.2115 14.73 26.2115 15.318C26.2115 15.9247 26.3375 16.4613 26.5895 16.928C26.8508 17.3947 27.2055 17.7633 27.6535 18.034C28.1108 18.3047 28.6335 18.44 29.2215 18.44ZM37.0423 19.14C36.445 19.14 35.9503 19.0327 35.5583 18.818C35.1757 18.6033 34.8863 18.2767 34.6903 17.838C34.5037 17.39 34.4103 16.8207 34.4103 16.13V11.72H35.1103V16.102C35.1103 16.6433 35.1803 17.0913 35.3203 17.446C35.4603 17.7913 35.675 18.048 35.9643 18.216C36.2537 18.384 36.6177 18.468 37.0563 18.468C37.4017 18.468 37.7237 18.4073 38.0223 18.286C38.321 18.1553 38.5823 17.9873 38.8063 17.782C39.0303 17.5673 39.203 17.3247 39.3243 17.054C39.455 16.774 39.5203 16.48 39.5203 16.172V11.72H40.2203V19H39.5483L39.4783 17.46H39.5623C39.4597 17.768 39.2777 18.048 39.0163 18.3C38.755 18.552 38.447 18.7573 38.0923 18.916C37.747 19.0653 37.397 19.14 37.0423 19.14ZM43.3643 19V9.774H44.0643V19H43.3643ZM41.6143 12.364V11.72H46.0243V12.364H41.6143ZM53.8314 19.14C53.2341 19.14 52.7394 19.0327 52.3474 18.818C51.9647 18.6033 51.6754 18.2767 51.4794 17.838C51.2927 17.39 51.1994 16.8207 51.1994 16.13V11.72H51.8994V16.102C51.8994 16.6433 51.9694 17.0913 52.1094 17.446C52.2494 17.7913 52.4641 18.048 52.7534 18.216C53.0427 18.384 53.4067 18.468 53.8454 18.468C54.1907 18.468 54.5127 18.4073 54.8114 18.286C55.1101 18.1553 55.3714 17.9873 55.5954 17.782C55.8194 17.5673 55.9921 17.3247 56.1134 17.054C56.2441 16.774 56.3094 16.48 56.3094 16.172V11.72H57.0094V19H56.3374L56.2674 17.46H56.3514C56.2487 17.768 56.0667 18.048 55.8054 18.3C55.5441 18.552 55.2361 18.7573 54.8814 18.916C54.5361 19.0653 54.1861 19.14 53.8314 19.14ZM61.4134 19.14C60.7787 19.14 60.2141 19.0187 59.7194 18.776C59.2247 18.524 58.8467 18.2207 58.5854 17.866L59.1174 17.404C59.3694 17.74 59.6961 18.0013 60.0974 18.188C60.4987 18.3653 60.9514 18.454 61.4554 18.454C61.7354 18.454 61.9921 18.426 62.2254 18.37C62.4587 18.3047 62.6547 18.216 62.8134 18.104C62.9814 17.992 63.1121 17.8567 63.2054 17.698C63.2987 17.53 63.3454 17.3433 63.3454 17.138C63.3454 16.774 63.1727 16.466 62.8274 16.214C62.6687 16.102 62.4681 15.9993 62.2254 15.906C61.9827 15.8127 61.6981 15.7193 61.3714 15.626C60.8767 15.4767 60.4567 15.3367 60.1114 15.206C59.7661 15.0753 59.4907 14.912 59.2854 14.716C59.1361 14.5573 59.0241 14.3893 58.9494 14.212C58.8747 14.0253 58.8374 13.8247 58.8374 13.61C58.8374 13.3113 58.8981 13.0407 59.0194 12.798C59.1407 12.546 59.3134 12.3267 59.5374 12.14C59.7614 11.9533 60.0227 11.8133 60.3214 11.72C60.6201 11.6173 60.9514 11.566 61.3154 11.566C61.6607 11.566 62.0014 11.6173 62.3374 11.72C62.6734 11.8133 62.9861 11.9487 63.2754 12.126C63.5647 12.3033 63.8167 12.5087 64.0314 12.742L63.5554 13.26C63.3687 13.0547 63.1634 12.8727 62.9394 12.714C62.7247 12.5553 62.4867 12.434 62.2254 12.35C61.9641 12.2567 61.6747 12.21 61.3574 12.21C61.1054 12.21 60.8674 12.2427 60.6434 12.308C60.4287 12.3733 60.2421 12.4713 60.0834 12.602C59.9247 12.7233 59.7987 12.868 59.7054 13.036C59.6214 13.1947 59.5794 13.372 59.5794 13.568C59.5794 13.7173 59.6074 13.8527 59.6634 13.974C59.7194 14.086 59.8081 14.1933 59.9294 14.296C60.0881 14.4267 60.2981 14.5387 60.5594 14.632C60.8301 14.7253 61.1614 14.828 61.5534 14.94C61.9081 15.0333 62.2207 15.1267 62.4914 15.22C62.7621 15.3133 62.9954 15.4253 63.1914 15.556C63.4901 15.7427 63.7094 15.962 63.8494 16.214C63.9987 16.466 64.0734 16.7553 64.0734 17.082C64.0734 17.4833 63.9614 17.838 63.7374 18.146C63.5134 18.454 63.2007 18.6967 62.7994 18.874C62.3981 19.0513 61.9361 19.14 61.4134 19.14Z" fill="white"/>
<rect x="0.5" y="0.5" width="74" height="29" rx="14.5" stroke="white"/>
</svg>
