<svg width="106" height="106" viewBox="0 0 106 106" fill="none" xmlns="http://www.w3.org/2000/svg">
<path d="M85 41.4211C85.0025 41.6936 84.9644 41.7343 84.7099 41.7547C84.4401 41.7776 84.1704 41.8031 83.9006 41.8056C82.8751 41.8234 81.847 41.8234 80.8214 41.8413C79.4446 41.8642 78.0679 41.8948 76.6886 41.9228C75.4467 41.9482 74.2048 41.9746 72.963 42.0017L68.9141 42.0858C67.657 42.1112 66.4016 42.1376 65.1478 42.1647C63.8118 42.1927 62.4732 42.2157 61.1371 42.2488C60.7723 42.2566 60.4096 42.3052 60.0556 42.3939C60.1777 42.4372 60.2974 42.4882 60.4221 42.5187C61.4527 42.7785 62.4834 43.0434 63.5166 43.2955C64.7992 43.6062 66.0843 43.9042 67.3669 44.2175C68.6368 44.5282 69.9015 44.8542 71.1689 45.17C72.2148 45.4323 73.2633 45.6844 74.3092 45.9442L77.3681 46.7006C78.3631 46.9451 79.3556 47.1922 80.3506 47.429C81.5569 47.7193 82.7631 48.002 83.9668 48.2898C84.0709 48.3227 84.1729 48.3618 84.2722 48.407C84.122 48.9978 83.977 49.576 83.8243 50.177C83.664 50.1414 83.5469 50.121 83.4324 50.093C82.0735 49.7517 80.7145 49.4053 79.3556 49.0692C77.8109 48.6846 76.2687 48.3077 74.724 47.9282C73.1945 47.5538 71.6651 47.1743 70.1331 46.8025C68.8378 46.4867 67.5399 46.1862 66.2446 45.8678C64.9366 45.5469 63.6336 45.2082 62.3256 44.8822C61.5036 44.6784 60.6765 44.4823 59.852 44.2837C59.8098 44.277 59.7668 44.2787 59.7253 44.2888C59.6838 44.2988 59.6447 44.317 59.6103 44.3423C59.768 44.439 59.9182 44.546 60.0785 44.6351C60.6587 44.9535 61.2389 45.2668 61.8192 45.5851C62.8956 46.1785 63.9704 46.7719 65.0435 47.3653C66.321 48.0708 67.5968 48.7754 68.8709 49.4792C69.6852 49.9274 70.4996 50.3833 71.3139 50.8316C72.65 51.5625 73.9877 52.2934 75.3271 53.0244C76.004 53.3937 76.6759 53.768 77.3477 54.1399C78.5667 54.8122 79.784 55.4829 80.9995 56.1519C81.1268 56.2232 81.2489 56.3021 81.4118 56.4015C81.1115 56.9312 80.8265 57.4304 80.5313 57.9499C80.3633 57.8812 80.2208 57.8353 80.0936 57.7666C79.605 57.5068 79.1215 57.2419 78.6379 56.9719C77.1492 56.1468 75.6656 55.3165 74.1768 54.4939C72.9731 53.8266 71.7677 53.1628 70.5606 52.5023C69.4587 51.9012 68.3492 51.3129 67.2498 50.7093C65.8095 49.9147 64.3716 49.1125 62.9313 48.3153C62.1525 47.8823 61.3764 47.4494 60.5951 47.0241C60.0378 46.7184 59.4754 46.4256 58.913 46.1327C58.8253 46.095 58.7352 46.0635 58.6432 46.0384C58.689 46.1403 58.6992 46.1938 58.7323 46.2244C59.4219 46.8891 60.1116 47.5563 60.8038 48.2185C61.2339 48.6311 61.6716 49.0335 62.0991 49.4461C63.2773 50.5794 64.4531 51.7153 65.6262 52.8537C66.9394 54.117 68.255 55.3802 69.5733 56.6434C70.9169 57.9338 72.2623 59.2242 73.6094 60.5146C74.4873 61.3576 75.367 62.1963 76.2483 63.0308C76.3605 63.1235 76.4786 63.2086 76.6021 63.2855C76.2382 63.8687 75.7317 64.2024 75.3602 64.6863C75.2973 64.6518 75.2377 64.6118 75.1821 64.5666C74.5077 63.9214 73.8341 63.277 73.1615 62.6335C71.5633 61.1003 69.9643 59.5672 68.3645 58.034L66.2599 56.0118C64.6414 54.4582 63.0229 52.9055 61.4044 51.3537C60.5671 50.5463 59.7375 49.7364 58.9002 48.9291C58.4422 48.4885 57.979 48.0555 57.5159 47.6226C57.4244 47.5478 57.3284 47.4789 57.2283 47.4163C57.2514 47.5047 57.2803 47.5914 57.3148 47.676C58.063 48.9113 58.8163 50.1439 59.5644 51.3817C60.2134 52.459 60.847 53.5414 61.4985 54.6187C62.3638 56.0525 63.2417 57.4788 64.107 58.9126C65.0027 60.3923 65.8909 61.8746 66.7841 63.3543C67.5883 64.6837 68.3941 66.0115 69.2017 67.3375C69.4944 67.824 69.7794 68.3129 70.0975 68.8452C69.586 69.1661 69.0923 69.4768 68.5502 69.8181C68.5222 69.7672 68.4943 69.7188 68.4688 69.673C67.7155 68.4377 66.964 67.2025 66.2141 65.9673C65.281 64.4341 64.3504 62.8984 63.4224 61.3601C62.5266 59.8779 61.6385 58.3956 60.7427 56.9159C59.9182 55.5508 59.086 54.1934 58.2589 52.8308C57.9637 52.3444 57.6787 51.8554 57.3835 51.3689C56.8364 50.4674 56.2876 49.5683 55.737 48.6719C55.6789 48.5861 55.616 48.5036 55.5487 48.4248C55.5396 48.7276 55.5951 49.0289 55.7116 49.3086C55.877 49.9045 56.0704 50.4954 56.2434 51.0888C56.7244 52.734 57.2028 54.3801 57.6787 56.0271C58.0426 57.2852 58.3964 58.5459 58.7603 59.804C59.2769 61.5944 59.8011 63.3823 60.3177 65.1702C60.8267 66.919 61.3331 68.6695 61.837 70.4217C61.9871 70.9387 62.1474 71.4532 62.3001 71.9727C62.3434 72.1255 62.3765 72.2809 62.4121 72.4261C61.865 72.7067 61.2704 72.8829 60.6587 72.9456C60.5442 72.5458 60.4246 72.1332 60.3075 71.7231C59.9716 70.5414 59.6408 69.3571 59.2998 68.178C59.0478 67.2942 58.7857 66.4156 58.5262 65.5344C58.1088 64.1081 57.6864 62.6819 57.2716 61.2557C56.9229 60.0485 56.5845 58.8413 56.2358 57.6341C55.7294 55.8845 55.2153 54.1373 54.7064 52.3877C54.4493 51.5039 54.2076 50.6202 53.948 49.739C53.8818 49.5123 53.7801 49.2958 53.6961 49.0743L53.579 49.1048C53.6019 49.8434 53.6248 50.5845 53.6477 51.3231C53.6528 51.4173 53.6604 51.5116 53.663 51.6058C53.6706 52.5812 53.6681 53.5541 53.6833 54.527C53.7063 55.9583 53.7368 57.3896 53.7648 58.8235C53.7902 60.0638 53.8165 61.3058 53.8437 62.5495C53.8717 63.8993 53.8997 65.25 53.9277 66.6015C53.9531 67.8579 53.9794 69.1143 54.0065 70.3708C54.032 71.4226 54.0625 72.477 54.0854 73.5288C54.0905 73.674 54.0752 73.8192 54.0676 74H52.3015C52.2834 73.9178 52.2715 73.8344 52.2659 73.7504C52.2353 72.3318 52.2099 70.9133 52.1819 69.4947C52.1539 68.0634 52.1268 66.6312 52.1005 65.1982C52.075 63.9299 52.0445 62.659 52.019 61.3907C51.991 60.0663 51.9639 58.7428 51.9376 57.4202C51.9096 56.1366 51.8825 54.853 51.8562 53.5694C51.8282 52.2476 51.8053 50.9232 51.7722 49.5989C51.767 49.4333 51.713 49.2729 51.6169 49.1379C51.4795 49.6371 51.3319 50.1337 51.2047 50.6355C50.968 51.5778 50.7441 52.5227 50.515 53.4675C50.1918 54.8046 49.8737 56.1442 49.5455 57.4813C49.3546 58.2683 49.1459 59.0502 48.95 59.8346C48.5632 61.3932 48.178 62.9519 47.7946 64.5105C47.5529 65.4936 47.3145 66.4767 47.0795 67.4598C46.7869 68.6797 46.4993 69.8996 46.2041 71.1195C46.054 71.7486 45.8911 72.3751 45.7308 73.0042C45.6955 73.1065 45.6547 73.2068 45.6086 73.3047C45.0335 73.1646 44.4889 73.0297 43.9341 72.8947C43.9418 72.5062 44.0061 72.121 44.125 71.7512C44.4634 70.3759 44.7943 69.0006 45.1327 67.6253C45.3338 66.8129 45.5526 66.0055 45.7511 65.1905C46.0463 63.9732 46.3313 62.7507 46.624 61.5333C46.797 60.8253 46.9803 60.1198 47.1559 59.4143C47.5605 57.7895 47.9626 56.1646 48.3621 54.5397C48.6802 53.2434 48.9856 51.942 49.2986 50.6431C49.436 50.0802 49.5811 49.5199 49.7185 48.9571C49.7474 48.8434 49.7376 48.7233 49.6905 48.6158C49.6193 48.7202 49.5404 48.8196 49.4793 48.9291C48.922 49.9478 48.3664 50.9674 47.8124 51.9878C47.1737 53.1619 46.5349 54.336 45.8962 55.5101C45.657 55.9481 45.405 56.3785 45.1633 56.8166C44.555 57.9143 43.9519 59.0145 43.3437 60.1147C42.6592 61.355 41.9746 62.5962 41.29 63.8382C40.5928 65.104 39.8955 66.3689 39.1982 67.6329C38.7579 68.4377 38.3194 69.2442 37.8825 70.0524C37.8163 70.1696 37.7451 70.2842 37.6484 70.4446C37.1267 70.1594 36.6152 69.8792 36.063 69.5762C36.2462 69.2222 36.4141 68.8732 36.6025 68.5371C37.4092 67.0701 38.2261 65.6057 39.0353 64.1413C39.6868 62.9595 40.3408 61.7778 40.9847 60.591C41.5343 59.585 42.0688 58.5688 42.6159 57.5603C42.8551 57.1222 43.107 56.6918 43.3488 56.2537C43.957 55.1561 44.5635 54.0567 45.1684 52.9556C45.858 51.7026 46.5527 50.4495 47.2398 49.1965C47.5132 48.7104 47.7595 48.2096 47.9778 47.6964C47.906 47.7389 47.8379 47.7875 47.7743 47.8416C46.8887 48.7508 46.0048 49.6634 45.1225 50.5794C44.7205 50.9971 44.3311 51.4275 43.929 51.8452C42.7762 53.0447 41.6183 54.2367 40.4655 55.4337C39.2007 56.7478 37.9385 58.0645 36.6788 59.3838C35.3886 60.7285 34.0983 62.0741 32.8081 63.4205L30.8155 65.4987C30.7799 65.5344 30.7392 65.5675 30.6806 65.6184C30.248 65.2007 29.823 64.7907 29.3828 64.3628C29.4434 64.2675 29.5106 64.1764 29.5838 64.0903C30.3702 63.2702 31.1582 62.4527 31.948 61.6377C33.3044 60.2268 34.6616 58.8141 36.0197 57.3998C36.8697 56.5135 37.7146 55.6196 38.562 54.7307C39.9998 53.2256 41.4376 51.7212 42.8755 50.2178C43.5931 49.4665 44.3141 48.7168 45.0386 47.9689C45.4992 47.4927 45.9598 47.019 46.4179 46.5402C46.4899 46.4685 46.5371 46.3757 46.5527 46.2753C46.4867 46.293 46.4227 46.3178 46.3619 46.3491C45.204 47.0444 44.0478 47.7406 42.8933 48.4375C41.9339 49.0157 40.9694 49.5862 40.0125 50.1694C38.0861 51.3435 36.1647 52.5252 34.2383 53.6967C33.2458 54.2978 32.2381 54.8785 31.2431 55.4795C29.7976 56.3505 28.3555 57.2266 26.9168 58.1078C26.4664 58.3803 26.0236 58.6681 25.5783 58.9457C25.4663 59.0145 25.3467 59.0731 25.2016 59.1546C24.8835 58.6223 24.5781 58.118 24.26 57.5883C24.3822 57.4966 24.4713 57.4202 24.5705 57.3591C26.469 56.2181 28.3665 55.0763 30.2633 53.9336C32.009 52.8792 33.7497 51.8146 35.4929 50.7577C36.7857 49.9707 38.0785 49.1863 39.3712 48.4044C41.1399 47.3348 42.9077 46.266 44.6747 45.198C44.9763 45.0156 45.2556 44.7985 45.5068 44.5511C45.4092 44.556 45.3122 44.5687 45.2167 44.5893C44.5042 44.7956 43.7967 45.0095 43.0841 45.2209C41.9619 45.5545 40.8396 45.8933 39.7148 46.2218C39.132 46.3924 38.5416 46.5376 37.9614 46.7083C36.5897 47.1081 35.2232 47.5232 33.8515 47.9205C32.518 48.3051 31.1794 48.6744 29.8434 49.059C28.8594 49.3391 27.8762 49.6261 26.8939 49.9198C25.7437 50.2585 24.5985 50.6125 23.4482 50.9462C22.8426 51.1244 22.2293 51.2773 21.5778 51.4504C21.3997 50.8723 21.2292 50.3247 21.0561 49.7619C21.4481 49.5652 21.8638 49.4197 22.2929 49.3289C23.6671 48.9342 25.0438 48.5496 26.4181 48.1549C27.2858 47.9078 28.1511 47.648 29.0163 47.3959L34.4139 45.8296C35.2817 45.58 36.1495 45.3287 37.0173 45.0757C38.3991 44.6682 39.781 44.2531 41.1628 43.8507C42.341 43.5069 43.5218 43.1758 44.7001 42.8345C44.8146 42.7893 44.9267 42.7383 45.036 42.6817C44.924 42.6536 44.81 42.634 44.695 42.6231C43.5193 42.6461 42.3461 42.6741 41.1704 42.697C40.4833 42.7123 39.7937 42.7199 39.104 42.7301C38.0505 42.7479 36.9995 42.7632 35.9459 42.7836C33.9329 42.8193 31.9208 42.8575 29.9096 42.8982C28.7084 42.9211 27.5072 42.9517 26.3061 42.9746C24.9141 43.0052 23.5246 43.0306 22.1326 43.0587C21.5931 43.0714 21.0536 43.0943 20.5141 43.107C20.3843 43.1096 20.2519 43.0943 20.0763 43.0841C20.0509 42.4882 20.0254 41.9177 20 41.3319C20.0855 41.3049 20.1732 41.2853 20.2621 41.2733C20.9492 41.253 21.6389 41.2275 22.326 41.2173C23.3134 41.202 24.2982 41.202 25.2856 41.1867C26.5937 41.1638 27.9042 41.1333 29.2123 41.1052C30.4949 41.0798 31.7775 41.0535 33.0601 41.0263C34.3706 40.9983 35.6804 40.9711 36.9893 40.9448C38.2719 40.9168 39.5545 40.8896 40.8371 40.8633C42.1196 40.837 43.4014 40.8098 44.6823 40.7818C44.7586 40.7793 44.835 40.7614 44.9902 40.7385C44.8859 40.6646 44.8426 40.6137 44.7917 40.601C43.8934 40.3743 42.99 40.1527 42.0891 39.9261C41.827 39.8598 41.5674 39.786 41.3078 39.7198C40.1194 39.4218 38.9301 39.1264 37.74 38.8335C36.6813 38.5737 35.6202 38.3241 34.559 38.0618C33.0168 37.6849 31.4746 37.3003 29.9299 36.9183C28.9247 36.6687 27.9178 36.4199 26.9092 36.172C25.367 35.7926 23.8249 35.408 22.2802 35.0285C21.8755 34.9292 21.4684 34.8426 21.0612 34.7433C20.9537 34.7117 20.8483 34.6734 20.7456 34.6287C20.8907 34.0531 21.0307 33.4928 21.1808 32.8917C21.5956 32.9809 22.0028 33.0573 22.4023 33.1566C23.2396 33.3654 24.0717 33.587 24.909 33.7959C25.9015 34.0429 26.899 34.2798 27.8915 34.5243C29.4354 34.9037 30.9784 35.2841 32.5206 35.6652C34.05 36.0422 35.5803 36.4182 37.1114 36.7935C38.1955 37.0609 39.2813 37.3292 40.3688 37.5983C41.3638 37.8402 42.358 38.083 43.3513 38.3267C43.8883 38.4591 44.4227 38.5941 44.9597 38.7214C45.0946 38.758 45.2375 38.7527 45.3694 38.7061C45.304 38.6532 45.2351 38.6047 45.1633 38.561C44.6136 38.2477 44.0639 37.9294 43.5066 37.6263C42.3843 37.01 41.2544 36.4013 40.1296 35.7875C39.7021 35.5557 39.2822 35.3112 38.8572 35.0769C37.7349 34.4529 36.6126 33.8315 35.4904 33.2126C34.2409 32.5199 32.9888 31.8289 31.7342 31.1395L27.978 29.069C26.7396 28.3839 25.4994 27.6996 24.2575 27.0162C24.059 26.9067 23.8554 26.8048 23.6009 26.6724C23.8961 26.1274 24.1786 25.6129 24.4764 25.0654C24.8937 25.2844 25.2882 25.4805 25.6724 25.6944C27.1739 26.5221 28.6677 27.3626 30.1691 28.1878C31.1285 28.7124 32.0956 29.2192 33.0575 29.7388C33.5079 29.9833 33.9482 30.2456 34.3986 30.4926C35.582 31.1421 36.7679 31.7813 37.9512 32.4333C39.0735 33.0547 40.1881 33.6838 41.3104 34.3052C42.5854 35.0132 43.8612 35.7179 45.1378 36.4191C45.5326 36.6413 45.9435 36.8337 46.367 36.9947C46.3224 36.9116 46.2686 36.8339 46.2066 36.7629C45.3643 35.9428 44.5194 35.1262 43.672 34.3129C43.2623 33.9181 42.8424 33.5361 42.4352 33.1439C41.2468 32.0004 40.066 30.8492 38.8801 29.7057C37.5466 28.4221 36.2114 27.1402 34.8745 25.86C33.5597 24.5967 32.2432 23.3344 30.9249 22.0728C30.1539 21.3343 29.3777 20.6059 28.6015 19.8698C28.5497 19.8134 28.5012 19.7538 28.4565 19.6916C28.8051 19.2026 29.2759 18.8409 29.678 18.3723C29.8714 18.5378 30.0393 18.6703 30.1946 18.818C31.0598 19.6508 31.9174 20.4938 32.7852 21.3266C34.2281 22.7095 35.6787 24.0874 37.1216 25.4703C37.941 26.2547 38.7528 27.0493 39.5723 27.8338C41.0635 29.2651 42.5599 30.6887 44.0537 32.1201C44.8044 32.8383 45.5526 33.5616 46.3033 34.2823C46.7105 34.6771 47.1177 35.0744 47.5249 35.4666C47.5832 35.5144 47.6444 35.5586 47.7081 35.599C47.731 35.5837 47.7539 35.5685 47.7768 35.5506C47.6292 35.2883 47.4918 35.0234 47.3365 34.7637C47.0261 34.2416 46.7054 33.7246 46.3924 33.2025C45.3066 31.3993 44.22 29.5945 43.1325 27.7879C42.196 26.2369 41.2586 24.6884 40.3205 23.1425C39.4043 21.6297 38.4873 20.116 37.5695 18.6015C36.946 17.5726 36.3225 16.5445 35.699 15.5173C35.442 15.0895 35.1875 14.6616 34.9025 14.1853C35.3911 13.8415 35.9179 13.6047 36.4269 13.2481C36.5694 13.4595 36.7068 13.6378 36.8213 13.8288C37.8291 15.4919 38.836 17.1558 39.842 18.8205C40.7276 20.2901 41.6132 21.7604 42.4988 23.2316C43.4557 24.8158 44.4134 26.399 45.3719 27.9815C46.2804 29.4841 47.1915 30.985 48.1051 32.4842C48.4614 33.0726 48.8227 33.6592 49.1892 34.2441C49.2605 34.3464 49.3369 34.445 49.4182 34.5395C49.4462 34.5243 49.4742 34.5115 49.5022 34.4962C49.4258 34.2135 49.3546 33.9334 49.2732 33.6532C49.1561 33.2508 49.0238 32.8561 48.9093 32.4537C48.5352 31.1421 48.1687 29.8279 47.7921 28.5188C47.2755 26.7284 46.7512 24.9406 46.2321 23.1527C45.9929 22.3377 45.7613 21.5176 45.5246 20.7026C45.0589 19.1083 44.5924 17.5149 44.125 15.9223C43.8094 14.8475 43.5015 13.7702 43.1885 12.6954C43.046 12.2014 42.8933 11.7124 42.7508 11.2208C42.6922 11.0171 42.649 10.8082 42.593 10.5688C43.1808 10.388 43.728 10.2199 44.3082 10.0442C44.3551 10.1421 44.3967 10.2424 44.4329 10.3447C44.8553 11.8253 45.2778 13.3058 45.7002 14.7864C45.9318 15.6039 46.1659 16.4206 46.4026 17.2364C46.6825 18.1966 46.9625 19.1559 47.2424 20.1143L48.0058 22.7579C48.5173 24.5203 49.0289 26.2836 49.5404 28.0477C49.7847 28.8907 50.0298 29.7328 50.2758 30.5741C50.5481 31.5216 50.8179 32.469 51.0978 33.4113C51.1563 33.6099 51.253 33.7984 51.3523 34.0378C51.4006 33.9512 51.4363 33.9181 51.4337 33.8901C51.4159 32.9707 51.3879 32.0538 51.3701 31.1344C51.3396 29.4866 51.3167 27.8388 51.2861 26.1911C51.2658 24.9609 51.2352 23.7334 51.2072 22.5033C51.1792 21.1407 51.1521 19.7765 51.1258 18.4105C51.1003 17.1549 51.0741 15.8993 51.0469 14.6438C51.0189 13.3067 50.9935 11.9696 50.9629 10.6325C50.9527 10.2403 50.9197 9.85064 50.9044 9.46097C50.8993 9.32854 50.9197 9.19611 50.9324 9.00764C51.2505 9.00509 51.5431 9.00255 51.8333 9.00255C52.1157 9 52.3982 9 52.7214 9C52.7392 9.14008 52.7647 9.25468 52.7698 9.36929C52.7799 9.73348 52.7825 10.0977 52.7876 10.4644C52.8156 12.1402 52.8436 13.8152 52.8715 15.4893C52.897 16.9359 52.9241 18.3816 52.953 19.8265C52.9784 21.0541 53.0056 22.2825 53.0344 23.5118C53.0624 24.8769 53.0896 26.2411 53.1159 27.6045C53.1413 28.8474 53.1684 30.0902 53.1973 31.3331C53.2151 32.0869 53.238 32.8434 53.2609 33.5998C53.266 33.7169 53.2914 33.8341 53.3194 34.0276C53.3732 33.9645 53.4194 33.8953 53.4569 33.8213C53.6732 32.9554 53.8852 32.0903 54.0931 31.2261C54.3984 29.968 54.703 28.709 55.0067 27.4492C55.1848 26.7157 55.3757 25.9848 55.5538 25.2513C55.8744 23.9269 56.1849 22.6 56.5081 21.2757C56.7168 20.4225 56.9433 19.577 57.157 18.7238C57.5566 17.1142 57.9553 15.5037 58.3531 13.8924C58.6 12.8839 58.8468 11.8745 59.0937 10.8643C59.1776 10.5154 59.2616 10.1639 59.3481 9.80225C59.992 9.76914 60.5111 10.0748 61.1066 10.1664C61.0761 10.3906 61.0633 10.5892 61.0175 10.7802C60.6002 12.4841 60.1803 14.1879 59.7579 15.8917C59.4448 17.1473 59.1267 18.4029 58.8137 19.661C58.5592 20.6823 58.3124 21.7061 58.0605 22.7274L56.9229 27.3651C56.6684 28.3991 56.4148 29.434 56.162 30.4697C55.9101 31.491 55.6556 32.5123 55.4087 33.5361C55.3426 33.806 55.2993 34.0811 55.2408 34.3842C55.4342 34.3587 55.4647 34.2135 55.5233 34.1091C55.9508 33.3425 56.3783 32.5785 56.8008 31.8093C57.638 30.2812 58.4736 28.7532 59.3074 27.2251C59.707 26.489 60.1014 25.7505 60.5035 25.017C60.7351 24.5891 60.9794 24.1689 61.2135 23.7436C61.809 22.6688 62.4036 21.5932 62.9974 20.5167C63.7151 19.2153 64.4327 17.9147 65.1503 16.615C65.8527 15.339 66.5559 14.0622 67.26 12.7846C67.2855 12.7387 67.316 12.698 67.3694 12.6139C67.8988 12.8992 68.4128 13.1793 68.9549 13.4722C68.8251 13.7294 68.7233 13.9485 68.6088 14.1573C68.3517 14.6336 68.0896 15.1047 67.8275 15.5784C66.9953 17.0785 66.1581 18.5735 65.331 20.0787C64.7992 21.049 64.2877 22.0295 63.7609 23.0024C63.5217 23.4405 63.2697 23.8709 63.028 24.3089C62.4121 25.4194 61.798 26.5306 61.1855 27.6427C60.5086 28.8703 59.8317 30.0996 59.1547 31.3305C58.4651 32.5861 57.7754 33.8409 57.0858 35.0947C57.038 35.1798 57.0234 35.2797 57.0451 35.3749C57.1262 35.3179 57.2035 35.2558 57.2766 35.189C58.5134 33.9028 59.7477 32.6158 60.9794 31.328C61.3255 30.9663 61.6716 30.6072 62.0202 30.2456C63.4911 28.7175 64.9629 27.1903 66.4355 25.6639C67.7181 24.3293 68.999 22.9931 70.2782 21.6552C71.5786 20.3003 72.8781 18.9445 74.1768 17.5879C74.2218 17.5297 74.2626 17.4684 74.299 17.4045C74.7673 17.8578 75.1973 18.2704 75.6376 18.6958C75.5913 18.7763 75.5385 18.853 75.4798 18.925C74.7138 19.7247 73.9453 20.5227 73.1742 21.319C71.7974 22.7503 70.4207 24.1825 69.0439 25.6155C68.1278 26.5705 67.2134 27.5273 66.3006 28.4857L62.1322 32.8561C61.3942 33.6278 60.6511 34.3944 59.9105 35.161C59.4881 35.599 59.0665 36.0371 58.6458 36.4751C58.5751 36.5575 58.5096 36.6443 58.4498 36.7349C58.5587 36.7029 58.665 36.6629 58.7679 36.6152C60.3177 35.6814 61.8667 34.745 63.4148 33.8061C64.3971 33.2152 65.3896 32.6345 66.3719 32.0411C67.8402 31.1574 69.306 30.2634 70.7719 29.3746C71.856 28.7175 72.9409 28.0596 74.0267 27.4008C74.8716 26.8914 75.7216 26.3923 76.5639 25.8803C77.5335 25.292 78.498 24.6935 79.465 24.1027C79.5643 24.0415 79.6762 23.9957 79.8264 23.9193C80.1317 24.4261 80.4269 24.9202 80.7451 25.4525C80.5982 25.5758 80.4444 25.6906 80.2844 25.7963C79.0578 26.5349 77.8261 27.2633 76.5995 28.0018C74.9225 29.0104 73.248 30.0291 71.5735 31.0427C70.1967 31.873 68.8208 32.7041 67.4458 33.5361C65.8298 34.5141 64.213 35.4929 62.5953 36.4726C61.6156 37.0685 60.6409 37.6747 59.6637 38.2783C59.5808 38.3296 59.5194 38.4092 59.4906 38.5024C59.6281 38.4718 59.7706 38.4464 59.908 38.4082C61.0863 38.072 62.2645 37.7307 63.4428 37.392C64.3106 37.1424 65.1809 36.8953 66.0461 36.6432C67.858 36.116 69.6674 35.5812 71.4793 35.054C73.2124 34.5497 74.9505 34.0556 76.6835 33.5514C78.47 33.0318 80.2547 32.5097 82.0378 31.9851C82.4883 31.8552 82.9336 31.71 83.4197 31.5598C83.6105 32.1684 83.7861 32.7287 83.9744 33.3323C83.6411 33.4342 83.3611 33.5183 83.0787 33.5998C81.3456 34.104 79.6118 34.6083 77.877 35.1126C75.8463 35.7009 73.8129 36.2867 71.7771 36.8699C70.0949 37.3563 68.4137 37.8453 66.7332 38.3368C64.884 38.8742 63.0339 39.4133 61.183 39.9541C60.7881 40.0647 60.406 40.2167 60.0429 40.4074C60.1325 40.4334 60.2246 40.4496 60.3177 40.4558C61.127 40.4354 61.9362 40.4134 62.7455 40.3896C62.8142 40.387 62.8804 40.3794 62.9491 40.3794C64.6363 40.3514 66.3244 40.3234 68.0133 40.2954C69.39 40.2699 70.7668 40.2419 72.1435 40.2113C73.3447 40.1858 74.5458 40.1595 75.747 40.1324C77.1382 40.1043 78.5285 40.0772 79.918 40.0509C81.1471 40.0254 82.3754 39.9982 83.6029 39.9694C83.9134 39.9617 84.2238 39.9312 84.5318 39.921C84.6677 39.9205 84.8037 39.9273 84.9389 39.9413C84.9559 40.0143 84.9678 40.0883 84.9746 40.1629C84.9847 40.5831 84.9975 41.0008 85 41.4211Z" fill="#F28E00"/>
<path d="M77.1055 36.9192C77.0107 36.5358 76.966 36.1418 76.9725 35.747C76.9797 35.5053 76.9702 35.2637 76.9677 35.0218C76.9532 34.6446 76.9932 34.2673 77.0862 33.9016C77.1167 33.7897 77.1365 33.6752 77.1453 33.5596C77.1623 33.3542 77.0319 33.2575 76.8589 33.3627C76.7288 33.4431 76.6145 33.5467 76.5218 33.6684C76.2449 34.0352 76.1179 34.4935 76.1665 34.9505C76.1797 35.0231 76.1658 35.098 76.1275 35.161C76.0892 35.2241 76.0291 35.2708 75.9585 35.2925C75.8788 35.312 75.7508 35.2189 75.6734 35.1452C75.3405 34.8063 75.0934 34.3928 74.9526 33.9391C74.8464 33.6083 74.7042 33.2902 74.5286 32.9904C74.2193 32.5214 73.838 32.1041 73.3986 31.754C73.3545 31.7253 73.307 31.7022 73.2572 31.6851C72.9755 31.9414 72.9732 31.9535 73.1811 32.2399C73.3791 32.513 73.5871 32.7788 73.7781 33.058C73.9444 33.3028 74.0568 33.58 74.108 33.8715C74.0626 33.8356 74.0241 33.7918 73.9944 33.7421C73.7599 33.365 73.528 32.9868 73.2948 32.6086C73.1069 32.3549 72.9605 32.0731 72.861 31.7735C72.7667 31.3951 72.4198 31.1765 72.1746 30.896C72.1617 30.8816 72.1458 30.8703 72.128 30.863C72.1102 30.8557 72.091 30.8525 72.0717 30.8536C71.9932 30.876 71.9098 30.8741 71.8324 30.8482C71.755 30.8224 71.6872 30.7737 71.638 30.7086C71.5727 30.645 71.458 30.5852 71.3806 30.6773C71.3243 30.7505 71.2991 30.8429 71.3104 30.9346C71.3342 31.1663 71.4336 31.3837 71.5932 31.5532C71.7118 31.6846 71.8212 31.8239 71.9208 31.9702C71.7141 31.9066 71.7069 31.6561 71.5002 31.7201C71.4097 32.0862 71.3999 32.0911 71.5214 32.305C71.7535 32.7171 71.9963 33.1231 72.2356 33.5303C72.3238 33.6787 72.4181 33.8242 72.5076 33.9679C72.4508 34.0186 72.4048 34.061 72.3336 34.125C72.4179 34.1699 72.5066 34.2063 72.5981 34.2338C73.5335 34.3896 74.2551 34.9346 74.9475 35.528C75.1491 35.7088 75.3402 35.9009 75.5199 36.1034C75.7048 36.3027 75.8778 36.5142 76.0565 36.7197C76.0315 36.7294 76.0043 36.7321 75.9778 36.7274C75.9514 36.7227 75.9268 36.7109 75.9066 36.6932C75.5839 36.3873 75.2468 36.096 74.9471 35.7697C74.4521 35.1955 73.7948 34.7846 73.0618 34.5914C72.8936 34.5655 72.7331 34.5036 72.5911 34.41C72.449 34.3164 72.3289 34.1932 72.2388 34.0489C72.21 33.9944 72.1349 33.9666 72.0817 33.9255C71.9757 33.8435 71.8697 33.7612 71.7652 33.6754C71.6238 33.5594 71.4921 33.429 71.3412 33.3249C71.2973 33.285 71.2403 33.2626 71.1811 33.2619C71.1218 33.2613 71.0643 33.2824 71.0196 33.3213C70.917 33.4144 71.0196 33.4977 71.0427 33.5836C71.0561 33.6197 71.0735 33.6542 71.0946 33.6864C71.4852 34.3241 72.0472 34.8391 72.7164 35.1727C72.8756 35.2595 73.0231 35.3664 73.1551 35.4907C73.5082 35.8211 73.7732 36.2344 73.9261 36.6932C73.9942 36.8424 74.075 36.9855 74.1678 37.1208C74.3141 37.3807 74.4578 37.6429 74.6041 37.9028C74.6328 37.9478 74.6481 38 74.6481 38.0533C74.6481 38.1066 74.6328 38.1588 74.6041 38.2037C74.4918 38.3837 74.3901 38.5702 74.2994 38.7621C73.9248 39.5719 73.3824 40.2928 72.7079 40.877C72.0904 41.4437 71.4245 41.9582 70.772 42.4882C69.9575 43.1492 69.1913 43.8503 68.7139 44.8098C68.6854 44.8602 68.6535 44.9087 68.6185 44.9548C68.5828 45.0056 68.535 45.0466 68.4795 45.0743C68.424 45.1019 68.3625 45.1153 68.3005 45.1132C68.0022 45.1288 67.7054 45.1651 67.4122 45.2219C66.9591 45.3161 66.5167 45.4623 66.0624 45.5469C65.4999 45.6826 64.9474 45.8566 64.4088 46.0678C64.0478 46.2024 63.6653 46.27 63.2801 46.2673C62.9538 46.2527 62.6286 46.22 62.3023 46.1948C62.0055 46.1706 61.7077 46.1475 61.4119 46.1187C60.6231 46.0299 59.8244 46.1114 59.0698 46.3578C58.6771 46.4908 58.2964 46.6589 57.9061 46.799C57.7738 46.8554 57.6304 46.881 57.4868 46.8738C57.2488 46.8384 57.0151 46.7785 56.7895 46.6951C56.5305 46.6168 56.2583 46.5922 55.9894 46.6226C55.9339 46.6262 55.8539 46.6479 55.8238 46.6201C55.7505 46.5619 55.666 46.5195 55.5755 46.4953C55.4851 46.4712 55.3906 46.466 55.2981 46.4799C55.2393 46.4173 55.1941 46.3432 55.1652 46.2623C55.1363 46.1814 55.1244 46.0954 55.1302 46.0097C55.1325 45.4878 55.141 44.9656 55.1592 44.4447C55.1673 44.1834 55.2285 43.9265 55.3392 43.6896C55.4176 43.5025 55.4818 43.3097 55.5313 43.113C55.5894 42.9232 55.6426 42.7324 55.7009 42.5329C55.7505 42.5584 55.7857 42.5643 55.7988 42.5849C56.1953 43.2134 56.6871 43.7778 57.0182 44.4505C57.1609 44.7243 57.3204 44.9891 57.4957 45.2433C57.5427 45.3159 57.6381 45.4113 57.7047 45.4053C57.8319 45.3968 57.8122 45.248 57.8448 45.1526C57.8498 45.1337 57.8522 45.1143 57.852 45.0947C57.8824 44.5834 57.9101 44.0723 57.9428 43.5611C57.947 43.2525 57.9071 42.9448 57.8243 42.6474C57.7176 42.2201 57.5632 41.8062 57.3638 41.4136C57.6636 41.5948 57.9362 41.8075 58.2341 41.9792C59.4485 42.6972 60.7469 43.2625 62.0999 43.6625C62.2385 43.6922 62.3785 43.7149 62.5194 43.7303C62.2142 43.1344 61.8459 42.5729 61.4209 42.0555C61.0168 41.549 60.5331 41.1115 59.9888 40.76C59.4486 40.418 58.8817 40.1195 58.3271 39.8015C59.5045 40.0643 60.7084 40.1893 61.9146 40.174C63.2477 40.1475 65.2186 39.9722 65.522 39.8043C64.4319 39.2641 63.3782 38.7129 62.2131 38.4085C61.0384 38.1002 59.8434 38.0845 58.6409 38.0858C59.8843 37.9226 61.1351 37.8405 62.3329 37.4356C63.3564 37.09 65.5426 36.0953 65.7384 35.8634C65.6818 35.8513 65.6244 35.8424 65.5667 35.8367C64.8332 35.7994 64.1007 35.7714 63.3685 35.7231C62.2118 35.6474 61.0502 35.7226 59.9129 35.9467C59.6203 36.0035 59.3316 36.076 59.0632 36.1375C59.7316 35.7388 60.4312 35.3544 61.0958 34.917C61.7571 34.4831 62.3914 34.0069 63.0223 33.5295C63.6668 33.0687 64.2524 32.5305 64.766 31.9272C63.9982 32.0255 63.2402 32.1886 62.4999 32.4148C61.7193 32.6601 60.9591 32.9743 60.1917 33.2656C59.9741 33.345 59.7645 33.445 59.5659 33.5641C59.0995 33.8551 58.646 34.1659 58.1879 34.4691C58.1431 34.4994 58.0984 34.5284 58.0526 34.5585C58.692 33.7775 59.2655 32.9448 59.7675 32.069C60.2777 31.1908 60.722 30.2759 61.0967 29.3319C61.0365 29.3425 60.9799 29.3683 60.9324 29.4067C60.1541 30.0099 59.3625 30.5984 58.6004 31.2232C57.9869 31.6945 57.4326 32.2382 56.9496 32.8424C56.8359 32.9936 56.7043 33.1326 56.5809 33.2764C56.7791 32.8146 57.0149 32.3786 57.2069 31.924C57.4026 31.4618 57.5733 30.9894 57.7183 30.5089C57.8635 30.0284 57.9813 29.54 58.071 29.0461C58.1558 28.5653 58.3042 28.0902 58.268 27.585C57.6685 28.1195 57.111 28.6994 56.6004 29.3194C56.0992 29.9336 55.6716 30.6044 55.3265 31.3181C54.989 32.0333 54.6986 32.7698 54.4573 33.5229C54.5869 32.2041 54.5994 30.8764 54.4948 29.5553C54.3963 28.2407 54.132 26.9438 53.7081 25.6955C53.5364 26.238 53.3998 26.7794 53.2629 27.3209C53.0085 28.3118 52.7083 29.2908 52.5421 30.3046C52.3598 31.3817 52.31 32.4771 52.3937 33.5664C52.4034 33.6836 52.3949 33.8032 52.3949 33.9217C52.1096 32.7385 51.6502 31.6043 51.0318 30.556C50.3947 29.5061 49.5984 28.5615 48.6716 27.7559C48.7352 28.1089 48.7863 28.3919 48.8382 28.6745C48.9809 29.443 49.0909 30.22 49.2771 30.9779C49.4428 31.6523 49.6573 32.3139 49.9188 32.9573C50.1386 33.5 50.4564 34.0027 50.7297 34.5248C50.7816 34.6226 50.8251 34.7241 50.8734 34.8244L50.8215 34.8498C50.7066 34.6419 50.5857 34.4364 50.477 34.2263C50.0996 33.4725 49.5797 32.799 48.9459 32.2431C48.4642 31.8416 47.9603 31.4676 47.4365 31.1229C47.0305 30.846 46.5942 30.6115 46.1711 30.3614C46.1191 30.33 46.0612 30.3084 45.9535 30.2588C46.4358 31.2751 46.9434 32.2056 47.4666 33.1278C48.0013 34.0534 48.6373 34.9167 49.3627 35.7019C49.2433 35.6419 49.1298 35.5709 49.0235 35.4899C48.6559 35.2061 48.2472 34.9799 47.8115 34.8191C47.4948 34.7031 47.1721 34.5993 46.8482 34.5039C45.973 34.2671 45.0794 34.1046 44.177 34.018C44.0889 34.0126 44.0006 34.0122 43.9124 34.0167C44.0767 34.2743 45.2575 35.2302 46.2425 35.9418C47.0629 36.5354 47.9936 36.916 48.8963 37.3569C48.0769 37.2877 47.2529 37.2934 46.4346 37.3739C45.6502 37.4767 44.2749 37.8573 44.0731 38.0881C44.2775 38.139 44.4708 38.1837 44.6606 38.2365C45.2843 38.4098 45.924 38.5195 46.5698 38.5641C47.3313 38.6111 48.0939 38.6207 48.8565 38.6489C48.9294 38.6607 49.0013 38.6784 49.0714 38.7019C48.703 38.8217 48.3888 38.9111 48.0854 39.0271C47.7868 39.1355 47.4963 39.2652 47.2162 39.415C46.934 39.582 46.6617 39.7652 46.4007 39.9637C46.1462 40.1498 45.8422 40.2838 45.6476 40.5823C45.6844 40.5995 45.723 40.6129 45.7625 40.6222C46.3032 40.643 46.8432 40.5677 47.3576 40.4C47.7957 40.2537 48.2353 40.1095 48.6763 39.9673C48.722 39.9458 48.7719 39.9347 48.8224 39.9347C48.873 39.9347 48.9229 39.9458 48.9686 39.9673C48.8043 40.2283 48.6593 40.4772 48.4948 40.7129C48.1274 41.295 47.895 41.9519 47.8145 42.6355C47.7129 43.2387 47.8242 43.8478 47.8302 44.4545C47.8302 44.4689 47.8543 44.4823 47.8938 44.5245C47.9625 44.4649 48.0263 44.3999 48.0846 44.3301C48.371 43.93 48.6538 43.5274 48.9366 43.1238C49.0457 42.9432 49.1971 42.7918 49.3778 42.6828C49.4212 42.7939 49.4591 42.9071 49.4912 43.022C49.6396 43.6565 49.8249 44.2715 50.2841 44.7647C50.3235 44.8177 50.3442 44.8822 50.3432 44.9482C50.3458 45.2578 50.3494 45.5683 50.3311 45.8764C50.3309 46.0768 50.2689 46.2722 50.1535 46.4361C50.093 46.3458 50.0032 46.2793 49.8992 46.2478C49.7952 46.2163 49.6836 46.2218 49.5832 46.2633C49.1738 46.4325 48.7402 46.5361 48.2985 46.57C48.2496 46.5723 48.2014 46.5826 48.1558 46.6004C48.0385 46.644 47.912 46.657 47.7882 46.638C47.6645 46.6189 47.5477 46.5685 47.449 46.4916C46.8269 46.1321 46.1161 45.9553 45.3981 45.9815C44.8487 45.9933 44.3004 46.0358 43.7557 46.1087C43.1965 46.1408 42.6432 46.2415 42.1085 46.4085C42.0157 46.4369 41.9168 46.4381 41.8234 46.4121C41.6166 46.3643 41.4141 46.2997 41.2179 46.2188C40.2772 45.7905 39.2936 45.464 38.2836 45.2446C37.6974 45.1251 37.115 44.9847 36.5312 44.8531C36.4769 44.841 36.4252 44.8204 36.3815 44.8073C36.371 44.7849 36.3632 44.7613 36.3584 44.7371C36.3859 43.8767 36.2678 43.0178 36.0093 42.1967C35.7506 41.3883 35.5125 40.5738 35.2842 39.7568C35.2183 39.4756 35.1695 39.1907 35.1379 38.9037C35.0762 38.506 35.0184 38.1085 34.9603 37.7108C34.9397 37.5767 34.9559 37.4395 35.0072 37.314C35.0585 37.1884 35.143 37.0791 35.2516 36.9978C35.6612 36.6419 35.9932 36.2055 36.2268 35.7156C36.4636 35.2278 36.7951 34.792 37.202 34.4335C37.5517 34.0972 37.8199 33.6855 37.9864 33.2297C38.0138 33.1684 38.0289 33.1023 38.0311 33.0351C38.0324 32.8479 37.9067 32.7657 37.7447 32.8587C37.6301 32.9291 37.5256 33.0147 37.4341 33.1131C37.0753 33.5181 36.6809 33.8902 36.2558 34.2249C35.9166 34.4655 35.5753 34.6987 35.2333 34.9332C35.2029 34.9558 35.1649 34.9658 35.1273 34.9609C34.9304 34.8895 34.7962 35.0177 34.6489 35.1023C34.5872 35.1373 34.5255 35.1712 34.464 35.2062C34.5111 35.0963 34.5902 35.0032 34.691 34.9391C34.9291 34.7938 35.1753 34.6623 35.4284 34.5452C35.8422 34.3729 36.2229 34.13 36.5535 33.8274C36.4458 33.7089 36.4941 33.6001 36.563 33.4882C36.6949 33.2762 36.8314 33.0642 36.9499 32.8428C37.1093 32.546 37.2605 32.2422 37.4019 31.9363C37.4433 31.8598 37.4647 31.774 37.464 31.6869C37.4633 31.5999 37.4407 31.5145 37.3981 31.4385C36.9885 31.546 36.8967 31.9685 36.5897 32.2325C36.6404 32.096 36.6815 32.0006 36.7106 31.9026C36.7867 31.6537 36.8597 31.404 36.9293 31.1534C36.9495 31.0967 36.9491 31.0347 36.9284 30.9781C36.9076 30.9216 36.8678 30.8741 36.8157 30.8439C36.7425 30.8796 36.6771 30.9295 36.6234 30.9907C36.5696 31.052 36.5285 31.1233 36.5026 31.2005C36.4497 31.3141 36.4045 31.4312 36.3673 31.5509C36.1812 32.1286 35.885 32.6675 35.7737 33.273C35.7193 33.4643 35.6469 33.6501 35.5575 33.8278C35.5442 33.8169 35.534 33.8026 35.528 33.7864C35.5221 33.7702 35.5205 33.7527 35.5236 33.7358C35.6771 33.1583 35.7701 32.5624 36.0481 32.0235C36.0905 31.9401 36.1278 31.8615 36.036 31.7939C35.9442 31.7262 35.8727 31.7782 35.8172 31.8543C35.7237 31.9643 35.6427 32.0842 35.5755 32.2119C35.3956 32.6501 35.2268 33.0912 35.0693 33.5352C34.9661 33.8782 34.7835 34.1921 34.5363 34.4513C34.2861 34.693 34.0553 34.9541 33.8257 35.2145C33.5818 35.4784 33.4006 35.794 33.2957 36.1377C33.1229 36.7602 32.9635 37.3885 32.8462 38.0231C32.6962 39.0355 32.6154 40.057 32.6045 41.0805C32.5609 42.0159 32.5961 42.9548 32.6033 43.8927C32.6045 44.1246 32.6245 44.3555 32.6444 44.5864C32.6891 45.0964 32.7568 45.604 32.7822 46.1128C32.7852 46.3309 32.8407 46.545 32.944 46.7371C33.0473 46.9292 33.1954 47.0935 33.3758 47.2162C33.5715 47.3553 33.7769 47.4833 33.9836 47.6091C34.4451 47.8906 34.9164 48.1552 35.3722 48.4465C36.455 49.1556 37.605 49.7563 38.8055 50.24C39.2912 50.4297 39.7869 50.5915 40.2787 50.7606C41.1367 51.0574 41.9936 51.3576 42.8552 51.6404C43.1272 51.7299 43.4146 51.771 43.6879 51.8327C43.7023 51.8605 43.718 51.8751 43.7193 51.8932C43.7278 51.9705 43.735 52.0477 43.7386 52.124C43.7427 52.7917 43.8345 53.456 44.0116 54.0999C44.1725 54.6051 44.3633 55.1005 44.5374 55.6021C44.6183 55.7877 44.6779 55.9818 44.715 56.1809C44.7786 56.7766 44.8287 57.3736 44.8528 57.9706C44.8999 59.1578 44.7947 60.3467 44.9164 61.5322C44.9673 62.0215 45.0059 62.5135 45.0648 63.0028C45.1282 63.8122 45.1353 64.6251 45.086 65.4355C45.0799 65.5093 45.0453 65.5778 44.9894 65.6263C44.311 66.1531 44.1471 66.8542 44.2764 67.6651C44.3013 67.7959 44.293 67.9309 44.2522 68.0577C44.0532 68.5657 44.0227 69.1241 44.1653 69.6507C44.1811 69.7004 44.1855 69.7531 44.1782 69.8048C44.1709 69.8565 44.152 69.9058 44.1229 69.9492C43.9247 70.2693 43.7434 70.6005 43.5416 70.9182C42.8947 72.0046 42.3331 73.1396 41.8619 74.313C41.5363 75.066 41.2554 75.8376 41.0207 76.6238C40.8261 77.2704 40.6063 77.9098 40.408 78.5551C40.0789 79.7059 39.6724 80.8331 39.1912 81.9291C39.1017 82.1215 39.0215 82.318 38.9505 82.5189C38.9423 82.5485 38.9407 82.5796 38.9459 82.61C38.9512 82.6403 38.9631 82.6691 38.9809 82.6942C39.0445 82.7618 39.1269 82.7353 39.1837 82.67C39.2781 82.56 39.3676 82.4464 39.4545 82.3308C39.8195 81.8449 40.1736 81.3508 40.5518 80.8746C40.6666 80.7463 40.7455 80.59 40.7803 80.4214C40.796 80.326 40.814 80.2316 40.8346 80.1362C40.9868 79.4184 41.1344 78.6993 41.2938 77.9827C41.4373 77.2725 41.6532 76.5788 41.938 75.9125C42.1 75.5521 42.2666 75.1917 42.442 74.8369C42.7222 74.2676 43.0123 73.701 43.2987 73.1341C43.3133 73.1438 43.329 73.1536 43.3447 73.1631C43.2467 73.4446 43.1441 73.7239 43.0523 74.0079C42.8104 74.7607 42.5942 75.5246 42.3315 76.2702C41.8361 77.6721 41.3031 79.0595 40.8863 80.4879C40.8511 80.6075 40.7932 80.7198 40.7496 80.8371C40.6744 81.0027 40.6137 81.1746 40.5683 81.3508C40.4511 81.9671 40.3642 82.5882 40.2446 83.2022C39.9902 84.5026 40.0438 85.8187 40.0233 87.1309C40.0149 87.1791 40.0238 87.2286 40.0484 87.2708C40.0729 87.313 40.1115 87.3452 40.1575 87.3618C40.2081 87.3805 40.264 87.3793 40.3138 87.3584C40.3636 87.3376 40.4036 87.2986 40.4259 87.2495C40.4579 87.1912 40.4823 87.1291 40.4984 87.0646C40.6614 86.5098 40.8221 85.9552 40.9877 85.4017C41.0082 85.2939 41.0688 85.198 41.1573 85.1333C41.1897 85.3256 41.2128 85.4862 41.2454 85.6457C41.5105 86.8845 41.9736 88.0724 42.6171 89.1636C42.6968 89.3176 42.7864 89.4664 42.8853 89.6088C42.9148 89.6367 42.9503 89.6575 42.989 89.6697C43.0278 89.6818 43.0688 89.685 43.1089 89.679C43.1583 89.6705 43.2164 89.5762 43.2262 89.5134C43.2362 89.4077 43.2317 89.3011 43.2128 89.1967C43.1685 88.9503 43.1367 88.7019 43.1174 88.4523C43.0992 87.3429 42.9855 86.231 43.1693 85.1252C43.1778 85.0684 43.1935 85.0128 43.2056 84.9573C43.2499 85.0149 43.2763 85.0842 43.2817 85.1566C43.4016 86.2029 43.6086 87.2374 43.9005 88.2492C44.2327 89.3308 44.7038 90.3647 45.3023 91.3249C45.5554 91.7934 45.8883 92.2142 46.286 92.5683C46.6353 92.856 46.9966 93.1303 47.3616 93.3987C48.3161 94.0583 49.3486 94.5969 50.4356 95.0023C50.4923 95.0186 50.55 95.0307 50.6084 95.0386C50.5542 94.5249 50.3824 94.0621 50.3004 93.5823C50.2169 93.0977 50.107 92.6167 50.032 92.131C49.9569 91.6453 49.916 91.1545 49.8484 90.6682C49.7831 90.1895 49.7045 89.712 49.6283 89.2191C49.6888 89.2336 49.7117 89.2336 49.7238 89.2444C50.473 89.8747 51.3456 90.3415 52.2858 90.615C53.2067 90.9037 54.1384 91.1575 55.0678 91.4161C55.4208 91.5153 55.7808 91.5878 56.1387 91.6705C56.2184 91.6946 56.3043 91.6884 56.3798 91.6532C56.4554 91.618 56.5153 91.5563 56.5482 91.4797C56.5694 91.4386 56.5906 91.3962 56.6148 91.3504C57.4062 91.661 58.1893 91.9605 58.9665 92.276C59.9767 92.6868 60.9805 93.111 61.989 93.5268C62.0688 93.5619 62.1529 93.5859 62.2392 93.5982C62.2884 93.6132 62.3407 93.6151 62.3909 93.6036C62.4411 93.5921 62.4874 93.5676 62.5252 93.5326C62.563 93.4976 62.5909 93.4533 62.6062 93.4042C62.6216 93.355 62.6237 93.3027 62.6125 93.2524C62.6089 93.1691 62.5991 93.0869 62.5871 92.9539C62.7974 93.0519 62.9687 93.1339 63.1431 93.2126C63.503 93.3981 63.8915 93.5219 64.2924 93.5787C64.8784 93.6319 65.4609 93.7191 66.0446 93.7988C66.493 93.8592 66.9401 93.9366 67.3897 93.9921C67.5239 94.0091 67.6774 94.0754 67.8199 93.9183C67.7522 93.8289 67.6869 93.7371 67.6144 93.6512C67.3414 93.3262 67.0477 93.0169 66.7914 92.6783C66.0335 91.7136 65.3442 90.6968 64.7287 89.6355C64.4107 89.0631 64.0348 88.5212 63.8171 87.8971C63.6091 87.3035 63.3941 86.7139 63.197 86.1182C62.8092 84.9459 62.4308 83.7701 62.0503 82.5954C62.0453 82.5609 62.0449 82.5259 62.049 82.4913C62.0937 82.5221 62.1362 82.5561 62.1762 82.5929C62.8205 83.2901 63.6216 83.7801 64.4109 84.2836C64.5654 84.3815 64.7336 84.4576 64.8943 84.5471C64.9776 84.5931 65.0393 84.5833 65.0997 84.4623C64.9848 84.3075 64.8652 84.1348 64.7323 83.9728C64.1461 83.2562 63.5406 82.5541 62.9704 81.8229C62.4939 81.25 62.1097 80.6063 61.8319 79.9149C61.6167 79.3264 61.4584 78.7186 61.2771 78.119C61.2686 78.0925 61.2845 78.0599 61.2892 78.0296C61.3074 78.0211 61.3254 78.0126 61.3437 78.0054C61.3663 78.0475 61.3926 78.0876 61.4221 78.1252C62.2277 78.988 62.9642 79.9077 63.6869 80.8388C63.8056 80.9906 63.9366 81.1324 64.0785 81.2628C64.1073 81.2824 64.1406 81.2943 64.1752 81.2975C64.2099 81.3007 64.2448 81.295 64.2767 81.281C64.2984 81.2534 64.3136 81.2212 64.3209 81.1868C64.3283 81.1525 64.3276 81.1169 64.3191 81.0828C64.2843 80.9725 64.2369 80.8667 64.1777 80.7673C63.6967 79.8742 63.2169 78.9812 62.7299 78.0917C62.3191 77.3375 61.9029 76.5859 61.4815 75.8366C61.0647 75.097 60.6284 74.3671 60.2127 73.6263C59.8099 72.9121 59.4126 72.1943 59.032 71.468C58.522 70.4902 57.9383 69.5572 57.3545 68.6242C57.2243 68.415 57.1494 68.1762 57.137 67.9301C57.1245 67.684 57.1749 67.4388 57.2832 67.2176C57.3695 67.0462 57.4224 66.86 57.4391 66.6689C57.4427 66.2873 57.3714 65.9076 57.3835 65.5209C57.3736 65.4002 57.3939 65.2789 57.4427 65.168C57.5241 65.0292 57.5578 64.8675 57.5386 64.7078C57.5195 64.548 57.4485 64.3989 57.3367 64.2833C57.205 64.1311 57.0757 63.9763 56.9042 63.7745C56.989 63.3335 57.0721 62.809 57.1906 62.2918C57.3451 61.6053 57.5277 60.925 57.6981 60.2421C57.7537 60.0174 57.7948 59.7889 57.8624 59.5678C57.9295 59.3165 58.0201 59.0721 58.1332 58.8378C58.4365 58.2674 58.7605 57.7079 59.0855 57.1495C59.6362 56.1636 60.1152 55.1394 60.5188 54.0848C60.7732 53.4575 61.0119 52.8255 61.2438 52.191C61.2637 52.1275 61.3023 52.0714 61.3544 52.0301C61.4066 51.9887 61.47 51.964 61.5364 51.9591C61.869 51.9021 62.1982 51.8267 62.5224 51.7331C63.4881 51.4248 64.4416 51.0793 65.4096 50.7821C66.6836 50.3547 67.8955 49.7606 69.0136 49.0153C69.6424 48.6199 70.2956 48.2647 70.9691 47.9516C71.4372 47.7396 71.8524 47.4263 72.1847 47.0343C72.533 46.6448 72.8336 46.2153 73.0802 45.7547C73.1612 45.5915 73.2761 45.4464 73.3738 45.2906C73.6918 44.7842 74.031 44.2887 74.3225 43.7666C74.9558 42.6283 75.5687 41.477 76.1814 40.3286C76.3806 39.9537 76.5534 39.5654 76.7311 39.1816C76.7964 39.0426 76.8254 38.8848 76.8966 38.7502C77.1923 38.1873 77.2668 37.5342 77.1055 36.9192ZM72.726 33.0296C72.5606 32.7923 72.4274 32.5343 72.3295 32.2622C72.2252 32.0256 72.096 31.8008 71.9441 31.5916C71.9053 31.5299 71.8593 31.4731 71.8169 31.414C71.8381 31.3957 71.8568 31.3777 71.8763 31.3607C72.0709 31.5562 72.2332 31.7813 72.3571 32.0277C72.6098 32.5038 72.8502 32.9849 73.1258 33.524C72.9772 33.3722 72.8433 33.2067 72.726 33.0296ZM60.3799 38.8969C59.833 38.9464 59.2817 38.9068 58.7475 38.7797C59.2919 38.82 59.8361 38.8593 60.3799 38.8976V38.8969ZM59.7719 36.8944C59.7755 36.909 59.7793 36.9221 59.7829 36.9368C59.6814 36.9609 59.5811 36.9887 59.4796 37.0103C59.378 37.032 59.2729 37.0515 59.1677 37.0661C59.0554 37.0818 58.9417 37.0913 58.8285 37.1034C58.8236 37.0841 58.8188 37.0635 58.8152 37.0442C59.1351 36.9953 59.4529 36.9446 59.7719 36.895V36.8944ZM58.3254 37.1795C58.3278 37.1977 58.3303 37.216 58.3314 37.234C58.2154 37.2425 58.0994 37.2497 57.9835 37.2582C57.9822 37.2497 57.9809 37.2425 57.9799 37.234C58.0958 37.2166 58.2105 37.1984 58.3254 37.1801V37.1795ZM57.738 40.4475C58.203 40.6396 58.6352 40.9029 59.0191 41.2281C58.5791 40.9864 58.1392 40.7443 57.6994 40.5018C57.7128 40.4844 57.7248 40.4661 57.738 40.4481V40.4475ZM47.7922 37.9338H47.382V37.9313H47.7931L47.7922 37.9338ZM48.9862 36.5134C48.5571 36.2559 48.1277 35.9989 47.6979 35.7424C48.1885 35.8736 48.6408 36.1196 49.0176 36.4602C49.0068 36.4782 48.9957 36.4962 48.9862 36.5145V36.5134ZM48.3831 42.5696C48.531 42.1449 48.7496 41.7482 49.0297 41.3962C49.0417 41.5308 48.5813 42.3489 48.3831 42.5696ZM33.0907 38.7447C33.618 38.5455 34.193 38.5086 34.7415 38.6387C34.7559 38.6737 34.7718 38.7089 34.7826 38.7447C34.797 38.7894 34.8068 38.8342 34.8274 38.9162C34.704 38.9162 34.6026 38.9247 34.5034 38.9162C34.099 38.8885 33.6926 38.9146 33.295 38.9936C33.0449 39.0328 33.0207 39.008 33.0907 38.7441V38.7447ZM33.2066 39.4276C33.5532 39.3116 33.9252 39.2944 34.281 39.3779C34.4506 39.4044 34.6171 39.4589 34.7839 39.5011C34.9011 39.5314 34.9711 39.5906 34.9192 39.7598C34.2967 39.6052 33.6684 39.714 33.0279 39.7127C32.9872 39.5115 33.0979 39.4716 33.2066 39.4269V39.4276ZM33.0436 40.5454C32.9724 40.291 32.9916 40.2601 33.2092 40.1791C33.752 40.002 34.335 39.989 34.8852 40.1418C35.0824 40.1842 35.0714 40.3241 35.086 40.4886C34.7245 40.4693 34.3813 40.4293 34.0394 40.439C33.708 40.4481 33.3747 40.5073 33.0436 40.5448V40.5454ZM35.4655 44.537C35.4655 44.5503 35.4443 44.5637 35.3989 44.6143C35.3277 44.2652 35.2717 43.9412 35.1958 43.6222C35.1174 43.2936 35.023 42.9696 34.9348 42.6434C34.8466 42.3171 34.7476 41.9942 34.6703 41.6656C34.5675 41.3527 34.491 41.0318 34.4417 40.7061C34.4756 40.6904 34.5096 40.6747 34.5422 40.6588C34.6115 40.7285 34.6708 40.8074 34.7186 40.8933C34.9863 41.5339 35.208 42.1928 35.3819 42.8649C35.4846 43.4158 35.5127 43.978 35.4655 44.5363V44.537ZM41.0161 49.6852C40.9387 49.0064 40.968 48.3197 41.103 47.65C41.1418 47.4821 41.1732 47.3108 41.2143 47.1437C41.3025 46.7833 41.358 46.746 41.7362 46.7992C41.4971 47.76 41.257 48.7218 41.0161 49.6845V49.6852ZM56.544 47.0532C56.6989 47.0328 56.8565 47.0523 57.0018 47.1098C57.1471 47.1673 57.2754 47.2609 57.3744 47.3818C57.007 47.481 56.7132 47.2658 56.3931 47.2707C56.364 47.1081 56.4329 47.067 56.544 47.0526V47.0532ZM56.2974 47.5173C56.6275 47.5607 56.9587 47.6021 57.2873 47.661C57.3356 47.6695 57.3721 47.7479 57.4145 47.7939C57.3661 47.8338 57.3191 47.9076 57.2695 47.9088C56.9058 47.9226 56.5462 47.8293 56.2351 47.6404C56.223 47.6345 56.2254 47.6067 56.2139 47.562C56.2504 47.5419 56.2758 47.513 56.2974 47.5166V47.5173ZM52.335 51.3288C52.3275 51.1946 52.3072 51.0617 52.2974 50.9288C52.2896 50.8407 52.3097 50.7523 52.3548 50.6762C52.3999 50.6002 52.4678 50.5402 52.5489 50.5048C52.6121 50.529 52.6664 50.5719 52.7046 50.6278C52.7428 50.6838 52.7631 50.75 52.7628 50.8177C52.7795 50.9894 52.7759 51.1634 52.788 51.335C52.8026 51.5258 52.8147 51.7166 52.8474 51.9042C52.8657 51.9691 52.8634 52.0381 52.8406 52.1016C52.8177 52.1651 52.7756 52.2199 52.7202 52.2582C52.6839 52.2781 52.6439 52.2902 52.6027 52.2938C52.5615 52.2975 52.52 52.2926 52.4808 52.2794C52.417 52.2545 52.3644 52.2074 52.3324 52.1469C52.3005 52.0863 52.2915 52.0162 52.307 51.9495C52.3224 51.8742 52.3333 51.7979 52.3394 51.7212C52.3428 51.5904 52.3428 51.4588 52.335 51.3282V51.3288ZM52.4702 53.0672C52.4908 52.9727 52.5319 52.8839 52.5905 52.807C52.6491 52.7301 52.7238 52.667 52.8094 52.622C53.0016 52.7903 53.124 53.0243 53.1526 53.2781C53.1817 53.4304 53.0753 53.5296 52.9508 53.5961C52.8955 53.6273 52.8312 53.6384 52.7687 53.6277C52.7061 53.6169 52.6492 53.5849 52.6076 53.537C52.5393 53.4819 52.4895 53.4072 52.4649 53.323C52.4403 53.2388 52.4421 53.1491 52.47 53.0659L52.4702 53.0672ZM53.1191 50.718C53.1107 50.6295 53.1306 50.5405 53.176 50.464C53.2215 50.3876 53.29 50.3275 53.3718 50.2926C53.4562 50.4489 53.529 50.6113 53.5894 50.7785C53.6678 51.0551 53.7166 51.3415 53.7814 51.6231C53.8069 51.6863 53.8096 51.7564 53.7891 51.8215C53.7686 51.8865 53.7262 51.9424 53.6691 51.9796C53.6361 52.0087 53.5958 52.0283 53.5526 52.0362C53.5093 52.0442 53.4647 52.0403 53.4235 52.0249C53.3823 52.0095 53.3461 51.9832 53.3187 51.9489C53.2912 51.9145 53.2736 51.8733 53.2678 51.8298C53.2063 51.4598 53.1554 51.0888 53.1191 50.7168V50.718ZM53.5518 52.4412C53.6292 52.2769 53.8117 52.2478 53.8889 52.3977C53.9814 52.5963 54.0622 52.8001 54.1308 53.0081C54.1242 53.074 54.099 53.1368 54.0581 53.189C54.0172 53.2412 53.9624 53.2807 53.8999 53.303C53.8389 53.3196 53.7739 53.314 53.7166 53.2872C53.6592 53.2604 53.6132 53.2142 53.5868 53.1567C53.5188 53.0507 53.4797 52.9288 53.4735 52.803C53.4672 52.6773 53.494 52.5521 53.5512 52.4399L53.5518 52.4412ZM54.0002 54.8792C54.0811 54.8368 54.1732 54.8208 54.2637 54.8332C54.3495 54.8655 54.4291 54.9121 54.4993 54.971C54.4847 55.0315 54.4514 55.0858 54.404 55.1262C54.3567 55.1665 54.2978 55.1909 54.2357 55.1957C54.1833 55.2079 54.1282 55.2006 54.0808 55.175C54.0334 55.1494 53.9969 55.1074 53.9784 55.0568C53.9568 55.0068 53.9688 54.8944 54.0002 54.8787V54.8792ZM54.4581 51.5824C54.4348 51.5904 54.41 51.5935 54.3854 51.5916C54.3607 51.5897 54.3368 51.5827 54.3149 51.5712C54.2931 51.5596 54.2738 51.5437 54.2583 51.5245C54.2429 51.5052 54.2315 51.483 54.2249 51.4592C54.0897 51.1003 53.9591 50.7384 53.8503 50.3714C53.8238 50.2783 53.8853 50.1594 53.9139 50.011C54.1186 50.134 54.2676 50.3316 54.3297 50.5622C54.4191 50.8147 54.4844 51.077 54.5521 51.3369C54.5766 51.4312 54.5718 51.5397 54.4581 51.5819V51.5824ZM54.8461 51.8253C54.9072 51.8093 54.9721 51.8174 55.0274 51.848C55.0827 51.8786 55.124 51.9293 55.1429 51.9896C55.1989 52.1313 55.2465 52.2762 55.2854 52.4236C55.3083 52.4977 55.3023 52.5777 55.2687 52.6476C55.2351 52.7175 55.1763 52.7721 55.1041 52.8005C55.0737 52.8157 55.0406 52.8245 55.0067 52.8264C54.9728 52.8283 54.9388 52.8233 54.9069 52.8117C54.8751 52.8 54.8459 52.782 54.8212 52.7587C54.7965 52.7354 54.7769 52.7072 54.7634 52.6761C54.6798 52.4972 54.6079 52.3131 54.5482 52.1249C54.5616 52.0505 54.5972 51.982 54.6504 51.9285C54.7036 51.8749 54.7719 51.8388 54.8461 51.8249V51.8253ZM55.025 50.9504C54.8232 50.6349 54.6322 50.311 54.4526 49.9824C54.4321 49.9531 54.4178 49.92 54.4104 49.885C54.403 49.85 54.4028 49.8139 54.4097 49.7788C54.4165 49.7437 54.4304 49.7104 54.4505 49.6808C54.4705 49.6512 54.4964 49.6259 54.5264 49.6065C54.8861 49.864 55.1811 50.2015 55.388 50.5925C55.4166 50.6491 55.4268 50.7133 55.417 50.776C55.4072 50.8387 55.378 50.8967 55.3335 50.9419C55.2364 51.0659 55.1083 51.0803 55.025 50.95V50.9504ZM55.7609 49.7153C55.8124 49.7684 55.8496 49.8338 55.8691 49.9052C55.8885 49.9767 55.8896 50.0518 55.8722 50.1238C55.6958 50.1974 55.5966 50.0948 55.5035 50.003C55.3451 49.8495 55.1942 49.6886 55.0466 49.5268C54.8823 49.3466 54.9175 49.2052 55.1446 49.1509C55.1793 49.1473 55.2144 49.1514 55.2474 49.1629C55.2803 49.1744 55.3104 49.1929 55.3354 49.2173C55.4842 49.3748 55.6233 49.5444 55.7609 49.714V49.7153ZM55.3731 49.0422C55.4367 48.7823 55.4904 48.7473 55.7246 48.8777C56.0381 49.0307 56.3208 49.24 56.5586 49.4952C56.5241 49.5567 56.4853 49.6157 56.4427 49.6718C56.3013 49.8325 56.1883 49.8374 56.028 49.6911C55.9856 49.6523 55.9555 49.6016 55.9144 49.5605C55.7441 49.396 55.5724 49.2326 55.3731 49.0418V49.0422ZM55.622 51.2658C55.6664 51.2423 55.712 51.2211 55.7585 51.2022C56.0553 51.3581 56.1162 51.6241 56.1707 51.8874C56.1738 51.9549 56.1573 52.0219 56.1233 52.0802C56.0892 52.1386 56.0389 52.1858 55.9786 52.2162C55.9228 52.2332 55.8628 52.2304 55.8088 52.2084C55.7547 52.1864 55.7099 52.1465 55.6818 52.0954C55.6009 52.001 55.5299 51.8986 55.4698 51.7897C55.3379 51.5359 55.3803 51.4068 55.622 51.2654V51.2658ZM56.2565 50.6059C56.3154 50.5617 56.3886 50.541 56.462 50.5478C56.585 50.5876 56.6946 50.6609 56.7783 50.7596C56.8619 50.8582 56.9164 50.9783 56.9356 51.1062C56.938 51.1688 56.9235 51.2308 56.8936 51.2859C56.8638 51.3409 56.8197 51.387 56.766 51.4191C56.6462 51.5039 56.5677 51.4011 56.4891 51.342C56.3895 51.2685 56.2983 51.1841 56.2173 51.0905C56.1872 51.0565 56.1642 51.0167 56.1498 50.9736C56.1354 50.9305 56.1299 50.8849 56.1336 50.8396C56.1372 50.7943 56.15 50.7502 56.1711 50.71C56.1923 50.6698 56.2213 50.6342 56.2565 50.6055V50.6059ZM56.8289 50.1673C56.7575 50.0572 56.8107 49.9667 56.8819 49.8796C56.977 49.7733 57.0646 49.6607 57.1442 49.5425C57.1726 49.4808 57.2219 49.4313 57.2835 49.4027C57.3451 49.3741 57.4148 49.3684 57.4802 49.3865C57.5659 49.3998 57.6464 49.4362 57.713 49.4918C57.7796 49.5474 57.8299 49.62 57.8584 49.7019C57.8674 49.765 57.8553 49.8292 57.8241 49.8847C57.7929 49.9402 57.7442 49.9839 57.6856 50.0089C57.5844 50.0538 57.4803 50.0918 57.374 50.1225C57.3581 50.2904 57.3424 50.4681 57.3244 50.682C57.1206 50.5522 56.9509 50.3756 56.8294 50.1668L56.8289 50.1673ZM56.2141 47.9521C56.5054 48.0704 56.8098 48.1865 57.1083 48.3182C57.1319 48.3259 57.1534 48.3389 57.1712 48.3561C57.189 48.3733 57.2026 48.3943 57.2111 48.4176C57.2197 48.4409 57.2228 48.4657 57.2203 48.4904C57.2178 48.515 57.2097 48.5388 57.1967 48.5599C57.1764 48.6047 57.1393 48.6398 57.0934 48.6574C57.0474 48.6751 56.9964 48.6739 56.9513 48.6542C56.923 48.6478 56.8952 48.6398 56.8679 48.63C56.6135 48.4935 56.3568 48.3593 56.109 48.213C56.0868 48.1922 56.0697 48.1665 56.059 48.1381C56.0484 48.1096 56.0443 48.079 56.0473 48.0487C56.0511 48.018 56.1331 47.9968 56.2141 47.9516V47.9521ZM56.799 48.9419C56.8304 48.9707 56.8202 49.0422 56.8304 49.0941C56.7785 49.1001 56.7108 49.1291 56.6769 49.1073C56.3882 48.9213 56.1045 48.7257 55.8202 48.5308C55.8069 48.5213 55.8033 48.4971 55.7683 48.4233C55.848 48.4077 55.9144 48.3727 55.9616 48.3907C56.2726 48.5206 56.5566 48.7074 56.799 48.9415V48.9419ZM55.668 47.0795C55.6905 46.9976 55.7204 46.9179 55.7573 46.8414C55.9627 47.0191 55.9797 47.117 55.8395 47.1931C55.8197 47.2038 55.7977 47.2102 55.7752 47.2116C55.7526 47.2131 55.73 47.2097 55.7089 47.2016C55.6928 47.1859 55.6807 47.1666 55.6736 47.1453C55.6664 47.124 55.6645 47.1013 55.668 47.0791V47.0795ZM55.5749 47.4155C55.6385 47.343 55.7125 47.3055 55.7925 47.3792C55.8467 47.4289 55.802 47.587 55.7125 47.6184C55.6395 47.6321 55.5647 47.633 55.4914 47.6209L55.4734 47.5412C55.5071 47.4984 55.5398 47.4549 55.5749 47.4151V47.4155ZM55.413 47.7804C55.4433 47.7791 55.4736 47.7844 55.5017 47.7959C55.5299 47.8074 55.5552 47.8248 55.576 47.8469C55.593 47.8649 55.5629 47.9569 55.5302 47.9883C55.4735 48.0282 55.4117 48.0603 55.3464 48.0837C55.3562 48.149 55.3657 48.2143 55.3693 48.247C55.187 48.4498 55.0286 48.6385 54.8546 48.8126C54.7594 48.8902 54.6589 48.9611 54.5537 49.0246C54.4978 49.0595 54.4499 49.1061 54.4134 49.1611C54.3963 49.205 54.3701 49.2448 54.3365 49.2778C54.3029 49.3109 54.2627 49.3365 54.2186 49.3529C54.1744 49.3693 54.1273 49.3763 54.0802 49.3732C54.0332 49.3701 53.9874 49.3572 53.9457 49.3352C53.8356 49.5129 53.6713 49.6506 53.477 49.7278C53.2827 49.8051 53.0688 49.8179 52.8666 49.7642C52.6057 49.9864 52.5561 49.9949 52.301 49.8898C52.1149 49.9381 51.9722 49.9864 51.8272 50.0083C51.7942 50.0099 51.7611 50.0045 51.7303 49.9924C51.6995 49.9803 51.6716 49.9618 51.6485 49.9381C51.5953 49.8777 51.5336 49.781 51.5482 49.7182C51.5614 49.665 51.6754 49.6108 51.75 49.6033C51.9611 49.5782 52.1736 49.5681 52.386 49.5732C52.7513 49.5666 53.1133 49.5033 53.4592 49.3858C53.843 49.2479 54.2018 49.0484 54.5213 48.795C54.7775 48.6226 54.9932 48.3966 55.1535 48.1327C55.197 48.0615 55.2296 47.9815 55.2779 47.9126C55.315 47.8609 55.3598 47.7946 55.413 47.7799V47.7804ZM51.3536 39.3487C51.3004 39.078 51.4793 38.9173 51.6243 38.7396C51.6103 38.9685 51.5141 39.1846 51.3536 39.3483V39.3487ZM51.8599 40.689C51.9139 40.9704 51.9028 41.2605 51.8272 41.537C51.7089 41.4801 51.6254 41.4413 51.5277 41.3943L51.8599 40.689ZM51.368 53.3155C51.4164 53.0625 51.5573 52.8367 51.7632 52.682C51.8588 52.9152 51.9239 53.0725 51.9892 53.2309C51.9924 53.2399 51.9948 53.2492 51.9964 53.2586C52.0154 53.3153 52.0187 53.376 52.0059 53.4343C51.9931 53.4926 51.9647 53.5464 51.9238 53.5899C51.8829 53.6334 51.831 53.665 51.7735 53.6813C51.7161 53.6977 51.6553 53.6981 51.5976 53.6826C51.5248 53.6544 51.463 53.6033 51.4215 53.5371C51.3801 53.4708 51.3612 53.3929 51.3676 53.315L51.368 53.3155ZM51.936 52.0562C51.9339 52.1136 51.9177 52.1695 51.8889 52.2192C51.8431 52.2828 51.7693 52.3788 51.7174 52.374C51.6538 52.3668 51.5832 52.2786 51.5421 52.2107C51.5144 52.149 51.5048 52.0807 51.5143 52.0138C51.5397 51.6404 51.5639 51.2669 51.6038 50.8948C51.6046 50.8113 51.6292 50.7297 51.6748 50.6596C51.7204 50.5896 51.7851 50.534 51.8611 50.4995C51.9289 50.5678 51.9801 50.6506 52.0109 50.7418C52.0417 50.8329 52.0512 50.9298 52.0388 51.0252C52.0085 51.3676 51.9722 51.7125 51.936 52.0558V52.0562ZM55.3138 46.7581C55.365 46.8887 55.3723 47.0325 55.3346 47.1677C55.2968 47.3028 55.2162 47.422 55.1047 47.5073C55.1724 47.2675 55.2389 47.0284 55.3138 46.7577V46.7581ZM55.9182 37.403C55.8588 37.3353 55.8009 37.2664 55.7416 37.1988C55.7562 37.1854 55.7694 37.171 55.784 37.1564C55.8476 37.22 55.9133 37.2836 55.9773 37.3487C55.958 37.3663 55.9375 37.3845 55.9182 37.4025V37.403ZM57.0358 43.1435C56.8788 42.8026 56.7214 42.4622 56.5635 42.1223C56.5815 42.1151 56.6008 42.1066 56.6191 42.0981C56.8677 42.3966 57.0328 42.7556 57.0975 43.1386C57.077 43.1395 57.0564 43.142 57.0358 43.1431V43.1435ZM55.9858 32.1604C56.007 32.1689 56.0269 32.1784 56.0473 32.1869C55.9168 32.5083 55.7855 32.8302 55.6534 33.1526L55.5737 33.1163C55.7115 32.7964 55.8493 32.4784 55.9858 32.1604ZM53.5179 31.6637C53.4927 32.4299 53.466 33.196 53.4382 34.0213C53.3246 33.6925 53.3604 32.0008 53.5179 31.6637ZM51.6254 34.4602C51.3493 33.921 51.1236 33.3574 50.9512 32.7767C51.2267 33.3161 51.4523 33.8795 51.6254 34.46V34.4602ZM49.2978 34.0468C49.3135 34.0347 49.3282 34.0226 49.3438 34.0105C49.6336 34.3283 49.9044 34.6628 50.1547 35.0124C50.1378 35.0258 50.1221 35.0389 50.1064 35.051L49.2978 34.0468ZM49.5323 37.0065C49.6812 36.7592 49.8554 36.5279 50.0519 36.3165C50.5341 35.7962 51.1513 35.4201 51.8346 35.23C52.2384 35.1416 52.6466 35.075 53.0574 35.0305C53.1497 35.0175 53.2437 35.0253 53.3326 35.0533C53.4215 35.0813 53.503 35.1289 53.5711 35.1924C53.7172 35.1454 53.868 35.1146 54.0208 35.1006C54.5006 35.109 54.9724 35.2248 55.4016 35.4393C55.8308 35.6539 56.2065 35.9619 56.5012 36.3406C57.0825 37.0379 57.222 37.8583 57.0691 38.7394C57.0439 38.8808 57.004 39.0209 56.9689 39.16C56.958 39.1864 56.9442 39.2115 56.9277 39.2348C56.9065 39.2302 56.8879 39.224 56.8686 39.2192V38.9546C56.8734 38.352 56.6768 37.765 56.3102 37.2868C56.1883 37.1284 56.1037 36.9476 55.8908 36.8772C55.8272 36.856 55.781 36.7712 55.7291 36.7152C55.3997 36.3485 54.9704 36.086 54.494 35.9599C53.6497 35.7499 52.773 35.7039 51.9114 35.8246C51.6061 35.8658 51.306 35.9387 51.0159 36.0421C50.4212 36.2403 50.0212 36.6875 49.6489 37.1623C49.6018 37.2228 49.5597 37.288 49.5149 37.3497C49.5101 37.3569 49.4992 37.358 49.4219 37.3907C49.4413 37.2582 49.4784 37.1289 49.5323 37.0063V37.0065ZM50.1895 38.8933C50.1963 38.9807 50.1806 39.0684 50.1438 39.148C50.1069 39.2275 50.0503 39.2963 49.9792 39.3476C49.9608 39.3624 49.9455 39.3806 49.9343 39.4014C49.923 39.4222 49.9161 39.445 49.9139 39.4685C49.863 39.8009 49.8172 40.1344 49.7702 40.4668C49.7617 40.5331 49.749 40.5984 49.7411 40.665C49.7172 40.7867 49.7074 40.9108 49.7121 41.0347C49.7905 41.5579 49.8849 42.0801 49.9731 42.6023C50.0046 42.7451 50.0096 42.8926 49.9877 43.0373C49.9241 42.8342 49.8535 42.6345 49.8016 42.4282C49.6956 42.0197 49.6069 41.6063 49.5031 41.1986C49.3734 40.7806 49.4031 40.3293 49.5864 39.9319C49.6456 39.7712 49.6932 39.6065 49.729 39.439C49.7759 39.2935 49.8308 39.1507 49.8933 39.0112C49.9562 38.8741 49.9749 38.7209 49.9468 38.5727C49.9186 38.4246 49.845 38.2888 49.7363 38.1844C49.6177 38.5058 49.7604 38.8876 49.4799 39.202C49.3424 38.668 49.5031 38.2376 49.8111 37.7977C49.8667 37.7882 49.9229 37.7818 49.9792 37.7784C50.0061 37.7749 50.0334 37.7773 50.0592 37.7854C50.0851 37.7935 50.1089 37.807 50.129 37.8251C50.1491 37.8433 50.1651 37.8655 50.1759 37.8904C50.1866 37.9152 50.1918 37.9421 50.1912 37.9692C50.2079 38.2773 50.207 38.586 50.1887 38.8939L50.1895 38.8933ZM50.3068 37.0065C50.2895 37.0117 50.2716 37.0145 50.2535 37.015C50.4653 36.7512 50.7442 36.5492 51.0608 36.4301C51.9031 36.1931 52.7587 36.0485 53.6301 36.2548C53.9679 36.3028 54.2876 36.4372 54.5582 36.6451C54.5279 36.6548 54.5099 36.6663 54.4946 36.6633C53.5605 36.3913 52.5997 36.4324 51.6487 36.4735C51.1796 36.4733 50.7268 36.6458 50.3767 36.9582C50.3553 36.9772 50.3315 36.9934 50.3059 37.0063L50.3068 37.0065ZM56.3064 65.1029C56.0096 65.3011 55.714 65.5016 55.406 65.6806C54.7643 66.0539 54.1068 66.4014 53.4723 66.783C52.8947 67.1324 52.3287 67.4998 51.7744 67.8854C51.5171 68.0666 51.3116 68.3204 51.0687 68.5248C50.8246 68.7295 50.567 68.9176 50.2976 69.0878C50.2897 68.7936 50.3514 68.5017 50.4776 68.2358C50.5058 68.1969 50.542 68.1644 50.5836 68.1404C50.7564 68.0196 50.9364 67.9059 51.1058 67.78C51.9531 67.141 52.859 66.5838 53.8115 66.1158C54.5052 65.7787 55.1972 65.4388 55.8876 65.0959C56.1342 64.9725 56.3712 64.8288 56.6509 64.6719C56.5893 64.8514 56.4669 65.0038 56.3049 65.1027L56.3064 65.1029ZM56.6833 65.8389C56.6979 66.0611 56.693 66.066 56.2593 66.1569C56.4293 66.0285 56.5561 65.932 56.6818 65.8387L56.6833 65.8389ZM55.4361 66.6172C55.1676 66.7694 54.899 66.9216 54.6305 67.0738C54.622 67.0571 54.6125 67.0389 54.6027 67.0219C54.8728 66.8756 55.106 66.6581 55.4346 66.617L55.4361 66.6172ZM51.4115 69.4279C51.0678 69.6225 50.7387 69.8418 50.4267 70.084C50.3905 70.1082 50.3542 70.1336 50.2925 70.1735C50.2831 70.112 50.2909 70.0491 50.3153 69.9919C50.3396 69.9347 50.3795 69.8854 50.4303 69.8496C50.6423 69.6829 50.8543 69.5161 51.0793 69.3675C51.6328 68.9977 52.1935 68.6399 52.7481 68.2725C53.1989 67.974 53.6436 67.6696 54.0907 67.3685C54.1505 67.3223 54.2245 67.2984 54.3 67.3009C54.1259 67.4315 53.9493 67.5572 53.7791 67.6924C53.2824 68.0889 52.7941 68.4961 52.2902 68.8852C52.0163 69.0952 51.7219 69.277 51.4115 69.4279ZM51.5215 69.5752C51.4791 69.6333 51.4367 69.6925 51.3943 69.7518C51.4155 69.684 51.4354 69.6153 51.456 69.5475C51.4768 69.5572 51.4999 69.5657 51.5215 69.5752ZM51.4019 68.4974C52.0555 68.0236 52.758 67.6212 53.4973 67.2973C52.8315 67.7517 52.1308 68.1529 51.4019 68.4972V68.4974ZM51.5783 59.1145C51.1478 58.7859 50.6579 58.5434 50.1355 58.4003C49.6515 58.2832 49.142 58.3348 48.6913 58.5466C48.2127 58.7561 47.7833 59.0636 47.4308 59.4493C47.1613 59.7236 46.8883 59.993 46.5679 60.3134C46.4435 60.1756 46.3338 60.0254 46.2404 59.865C46.0624 59.4807 45.909 59.0855 45.7812 58.6818C45.7272 58.4179 45.6953 58.1499 45.6858 57.8807C45.6724 57.7747 45.6385 57.674 45.6254 57.5688C45.6108 57.4561 45.6121 57.342 45.629 57.2296C45.957 57.9144 46.3634 58.5588 46.8399 59.1499C47.078 58.9869 47.3027 58.8563 47.5009 58.6933C48.0457 58.2582 48.68 57.9491 49.3583 57.788C50.2537 57.5572 51.0562 57.7204 51.7269 58.3873C52.0753 58.7653 52.3197 59.227 52.4363 59.7276C52.4749 59.8632 52.4989 60.0026 52.5077 60.1433C52.2445 59.761 51.932 59.4151 51.5783 59.1145ZM49.2084 64.8417C49.1872 64.9867 49.0996 65.035 48.9281 64.9831C48.9873 64.1749 49.1019 63.3717 49.2713 62.5792C49.2713 62.7666 49.2726 62.954 49.2713 63.1412C49.2677 63.5652 49.2677 63.9892 49.258 64.4132C49.2505 64.557 49.2339 64.7001 49.2084 64.8417ZM49.1872 65.7624C49.1134 65.8796 49.0337 65.9933 48.9563 66.1082C48.9249 66.1082 48.8927 66.1069 48.8609 66.1069C48.7834 65.9801 48.7132 65.8489 48.6506 65.7141C48.6365 65.6486 48.6442 65.5803 48.6725 65.5197C48.7009 65.459 48.7484 65.4093 48.8077 65.3783C48.9309 65.2996 49.0324 65.3636 49.1206 65.4338C49.1473 65.4504 49.1703 65.4722 49.1883 65.498C49.2062 65.5238 49.2186 65.553 49.2248 65.5838C49.231 65.6146 49.2308 65.6463 49.2243 65.677C49.2177 65.7078 49.205 65.7368 49.1868 65.7624H49.1872ZM46.0099 65.25C46.0112 65.3515 46.0099 65.4531 46.0099 65.5546C45.9887 65.5546 45.9665 65.5559 45.9446 65.5559C45.7454 63.7963 45.396 62.0511 45.4818 60.2529C45.5628 60.5175 45.6546 60.7798 45.7212 61.0469C45.7848 61.2996 45.8299 61.5557 45.8711 61.8131C45.9126 62.0501 45.9392 62.2895 45.9508 62.5298C45.9769 63.4361 45.9915 64.3437 46.0095 65.25H46.0099ZM49.2561 50.9837C49.2184 51.0353 49.1636 51.0719 49.1014 51.0867C49.0392 51.1015 48.9738 51.0937 48.9169 51.0647C48.8321 51.0114 48.7924 50.887 48.7307 50.7929C48.7561 50.723 48.7918 50.6574 48.8367 50.5983C49.1013 50.3735 49.372 50.1558 49.6404 49.9372C49.6542 49.9233 49.6707 49.9122 49.6888 49.9046C49.7505 49.8925 49.8507 49.8563 49.8688 49.8804C49.8902 49.9094 49.9052 49.9425 49.9129 49.9777C49.9206 50.0129 49.9208 50.0493 49.9135 50.0846C49.8729 50.2229 49.8092 50.3532 49.725 50.4702C49.5775 50.6494 49.4209 50.8207 49.2557 50.9837H49.2561ZM49.2489 52.7481C49.187 52.7867 49.1136 52.8024 49.0414 52.7925C48.9692 52.7825 48.9028 52.7476 48.8537 52.6937C48.8296 52.6766 48.8097 52.6544 48.7954 52.6286C48.7811 52.6028 48.7727 52.5741 48.771 52.5447C48.7692 52.5152 48.7741 52.4857 48.7853 52.4584C48.7964 52.4311 48.8136 52.4067 48.8355 52.3869C49.0108 52.2044 49.1484 51.9748 49.4253 51.872C49.4887 52.0187 49.5057 52.1813 49.4739 52.3379C49.4422 52.4946 49.3632 52.6377 49.2476 52.7481H49.2489ZM47.7273 51.1747C47.8819 51.1009 48.0439 51.043 48.1562 50.997C48.3544 51.0019 48.4403 51.1361 48.357 51.2605C48.2621 51.405 48.148 51.5359 48.0178 51.6496C47.9005 51.7511 47.7229 51.6822 47.6286 51.5287C47.6049 51.5012 47.5884 51.4682 47.5805 51.4328C47.5726 51.3973 47.5735 51.3604 47.5832 51.3254C47.593 51.2904 47.6112 51.2584 47.6362 51.2321C47.6613 51.2058 47.6924 51.1861 47.7269 51.1747H47.7273ZM47.4844 51.1227C47.3877 51.0199 47.2898 50.9294 47.2052 50.8259C47.1755 50.8002 47.1525 50.7677 47.1379 50.7312C47.1234 50.6948 47.1179 50.6553 47.1218 50.6162C47.1257 50.5772 47.1389 50.5396 47.1604 50.5067C47.1818 50.4738 47.2109 50.4465 47.245 50.4272C47.3185 50.3657 47.403 50.3189 47.4941 50.2894C47.6186 50.2508 47.76 50.1989 47.8662 50.3269C47.8983 50.3964 47.9103 50.4736 47.9009 50.5496C47.8915 50.6256 47.8611 50.6974 47.813 50.757C47.7148 50.8739 47.6084 50.986 47.484 51.1227H47.4844ZM48.2529 51.9735C48.2989 51.8067 48.473 51.7233 48.7159 51.7717C48.6071 51.8989 48.5272 52.0061 48.4331 52.0967C48.4127 52.1122 48.3887 52.1222 48.3633 52.1259C48.338 52.1296 48.3121 52.1269 48.2881 52.1179C48.2711 52.0984 48.259 52.0751 48.2528 52.05C48.2466 52.0249 48.2465 51.9987 48.2525 51.9735H48.2529ZM48.647 50.2538C48.626 50.2741 48.6009 50.2896 48.5733 50.2991C48.5457 50.3087 48.5164 50.3121 48.4874 50.3091C48.4583 50.3061 48.4303 50.2968 48.4053 50.2818C48.3802 50.2668 48.3587 50.2465 48.3424 50.2224C48.3198 50.2032 48.3021 50.1791 48.2904 50.1519C48.2788 50.1247 48.2737 50.0951 48.2755 50.0656C48.2773 50.0361 48.2859 50.0074 48.3006 49.9818C48.3154 49.9561 48.3359 49.9343 48.3606 49.9179C48.5997 49.6796 48.8803 49.4867 49.1884 49.3487C49.2595 49.3221 49.3369 49.3174 49.4106 49.3354C49.4628 49.3487 49.5014 49.4164 49.551 49.466C49.5117 49.5287 49.4664 49.5873 49.4155 49.6411C49.1628 49.8491 48.9063 50.0545 48.6466 50.2538H48.647ZM50.6773 49.3752C50.8775 49.4324 51.0724 49.5068 51.2597 49.5976C51.2742 49.623 51.2823 49.6516 51.2833 49.6808C51.2844 49.71 51.2784 49.7391 51.2658 49.7655C51.1837 49.8274 51.0963 49.8821 51.0047 49.9288C50.8929 49.9336 50.7829 49.899 50.6941 49.8309C50.6053 49.7629 50.5433 49.6657 50.519 49.5565C50.5028 49.4369 50.5669 49.3462 50.6769 49.3748L50.6773 49.3752ZM50.5713 47.4248C50.5991 46.9633 50.639 46.5041 50.6773 46.0436C50.6773 46.0326 50.7051 46.0244 50.7182 46.0146C50.8681 46.3457 50.8524 47.2944 50.6614 47.6981C50.6179 47.6119 50.5876 47.5196 50.5718 47.4244L50.5713 47.4248ZM50.5253 50.6371C50.396 50.9779 50.2474 51.3114 50.0975 51.6449C50.0884 51.6702 50.0744 51.6934 50.0562 51.7131C50.038 51.7328 50.016 51.7487 49.9915 51.7598C49.967 51.7708 49.9406 51.7768 49.9138 51.7775C49.8869 51.7781 49.8602 51.7733 49.8353 51.7634C49.7363 51.7297 49.6165 51.5514 49.6599 51.4613C49.8437 51.0746 49.9029 50.6214 50.251 50.3205C50.2934 50.2843 50.3379 50.2491 50.3888 50.2069C50.4627 50.247 50.5182 50.3142 50.5437 50.3943C50.5693 50.4745 50.5628 50.5614 50.5257 50.6368L50.5253 50.6371ZM50.6364 52.6988C50.7235 52.6034 50.8272 52.5997 50.8613 52.7121C50.926 52.9115 50.9666 53.1179 50.9822 53.3269C50.9814 53.3978 50.9569 53.4664 50.9127 53.5218C50.8684 53.5772 50.8069 53.6162 50.738 53.6326C50.6643 53.5822 50.6024 53.5164 50.5566 53.4398C50.5107 53.3632 50.482 53.2776 50.4724 53.1888C50.4628 53.1001 50.4725 53.0103 50.5009 52.9257C50.5293 52.841 50.5757 52.7636 50.6368 52.6985L50.6364 52.6988ZM49.9985 52.4087C50.1302 52.3786 50.1978 52.4607 50.1906 52.7055C50.1713 52.7863 50.1458 52.9277 50.1011 53.0632C50.0661 53.1719 49.9767 53.2601 49.863 53.2215C49.7678 53.1868 49.6892 53.1173 49.6432 53.0269C49.5626 52.8389 49.7946 52.4569 49.9989 52.4085L49.9985 52.4087ZM51.2817 50.8611C51.1935 51.2914 51.1001 51.7211 51.0015 52.1505C50.9881 52.2073 50.9313 52.2943 50.8914 52.2968C50.8549 52.2982 50.8186 52.2909 50.7855 52.2756C50.7523 52.2603 50.7232 52.2373 50.7006 52.2086C50.6277 52.0872 50.5909 51.9474 50.5946 51.8058C50.6599 51.4494 50.7642 51.099 50.8654 50.7496C50.8778 50.6853 50.9081 50.6258 50.9528 50.5779C50.9975 50.53 51.0548 50.4957 51.1181 50.4789C51.1864 50.5129 51.2404 50.5701 51.2706 50.6402C51.3007 50.7103 51.305 50.7888 51.2828 50.8618L51.2817 50.8611ZM49.6612 46.7498C49.6648 46.7022 49.6815 46.6566 49.7095 46.618C49.7413 46.5872 49.7838 46.5698 49.8281 46.5696C49.8522 46.5709 49.8872 46.618 49.8944 46.6506C49.9047 46.6972 49.9047 46.7454 49.8944 46.792C49.8148 47.1287 49.8193 47.4799 49.9076 47.8145C49.9124 47.8289 49.8991 47.8495 49.8847 47.8955C49.6623 47.5581 49.5822 47.1466 49.6616 46.7505L49.6612 46.7498ZM49.3144 46.7401C49.2878 46.9549 49.2761 47.1713 49.2794 47.3877C49.3023 47.6634 49.4038 47.9268 49.5717 48.1467C49.6777 48.293 49.7712 48.4513 49.8849 48.5919C50.0299 48.7706 50.1929 48.9362 50.3392 49.1138C50.3839 49.167 50.4407 49.2807 50.4202 49.3046C50.3532 49.383 50.2658 49.4412 50.1677 49.4727C50.1314 49.4739 50.0955 49.4657 50.0633 49.4489C50.0311 49.4322 50.0038 49.4075 49.9839 49.3771C49.9376 49.211 49.8312 49.0681 49.6854 48.976C49.6383 48.9447 49.6286 48.8575 49.5995 48.7971C49.5512 48.6932 49.5005 48.5904 49.4511 48.4891C49.4299 48.4454 49.3799 48.3996 49.3858 48.3619C49.4259 48.1323 49.2323 47.9885 49.1793 47.7895C49.1104 47.5285 49.1189 47.2626 49.0693 47.0015C49.0453 46.8732 49.184 46.7551 49.3148 46.7407L49.3144 46.7401ZM49.1236 48.7965C49.1122 48.8244 49.0949 48.8496 49.0729 48.8702C48.8185 49.0371 48.5618 49.2027 48.3044 49.3646C48.2124 49.4225 48.1013 49.4855 48.0167 49.3839C47.9772 49.3339 47.9567 49.2714 47.959 49.2077C47.9612 49.1439 47.9859 49.083 48.0288 49.0358C48.063 48.9779 48.1096 48.9284 48.1653 48.8908C48.3755 48.7755 48.5927 48.6734 48.8155 48.5851C48.8496 48.5675 48.8878 48.5594 48.926 48.5618C48.9643 48.5641 49.0012 48.5768 49.0328 48.5985C49.0645 48.6201 49.0896 48.65 49.1056 48.6848C49.1217 48.7196 49.1279 48.7581 49.1238 48.7963L49.1236 48.7965ZM48.2756 46.9718C48.5643 46.9101 48.6332 46.9366 48.7553 47.1736C48.643 47.2219 48.5317 47.269 48.4013 47.3235L48.6816 47.449C48.6803 47.477 48.6803 47.5048 48.6792 47.5338C48.3964 47.5618 48.1378 47.7865 47.8043 47.6052C47.8984 47.4119 48.1223 47.5194 48.2465 47.361H47.7922C47.8079 47.0996 47.8622 47.0585 48.2756 46.9716V46.9718ZM47.8634 48.0025C48.075 47.8871 48.3113 47.8241 48.5522 47.8189C48.6147 47.8115 48.6778 47.8252 48.7316 47.8578C48.7854 47.8905 48.8267 47.9401 48.849 47.9989C48.7394 48.1279 48.6039 48.2324 48.4513 48.3057C48.2988 48.379 48.1325 48.4194 47.9633 48.4244C47.9059 48.437 47.8458 48.4271 47.7954 48.3967C47.7451 48.3664 47.7082 48.3179 47.6926 48.2612C47.6495 48.1147 47.7521 48.0532 47.8634 48.0023V48.0025ZM47.6146 49.5925C47.6358 49.7267 47.5056 49.757 47.4174 49.8077C47.3341 49.8548 47.2495 49.9008 47.1662 49.9491C46.9945 50.0507 46.9135 50.0471 46.8446 49.9347C46.8181 49.903 46.7986 49.8661 46.7872 49.8263C46.7759 49.7866 46.7731 49.7449 46.7789 49.704C46.7847 49.6631 46.7991 49.6239 46.821 49.5888C46.8429 49.5538 46.872 49.5238 46.9063 49.5007C47.0066 49.4534 47.112 49.4179 47.2205 49.3947C47.2919 49.4045 47.3207 49.4058 47.3477 49.4117C47.4621 49.4356 47.5927 49.4539 47.6152 49.5915L47.6146 49.5925ZM46.8893 49.1032C46.8585 49.1032 46.828 49.0968 46.7997 49.0844C46.7715 49.072 46.7461 49.0539 46.7252 49.0312C46.7044 49.0084 46.6885 48.9816 46.6785 48.9525C46.6685 48.9233 46.6647 48.8923 46.6673 48.8616C46.6699 48.8309 46.6789 48.801 46.6936 48.7739C46.7084 48.7468 46.7286 48.7231 46.753 48.7042C46.7774 48.6853 46.8054 48.6717 46.8353 48.6642C46.8653 48.6568 46.8964 48.6556 46.9268 48.6608C47.102 48.6816 47.2632 48.7669 47.3788 48.9001C47.3198 48.9711 47.2444 49.0266 47.1591 49.0618C47.0738 49.097 46.9812 49.1108 46.8893 49.1022V49.1032ZM46.8257 48.4217C46.6661 48.3926 46.6239 48.244 46.7197 48.1121C46.7508 48.076 46.7889 48.0465 46.8317 48.0254C46.8746 48.0043 46.9212 47.9921 46.9688 47.9895C47.0165 47.9869 47.0641 47.994 47.109 48.0103C47.1538 48.0266 47.1949 48.0518 47.2298 48.0844C47.277 48.1513 47.317 48.223 47.3493 48.2983C47.2825 48.3656 47.198 48.4129 47.1055 48.4345C47.0131 48.4562 46.9164 48.4514 46.8266 48.4208L46.8257 48.4217ZM43.959 46.7695C43.6981 46.7731 43.4371 46.7744 43.1772 46.7708C43.0854 46.7695 42.9936 46.7515 42.9029 46.7418C42.9016 46.7189 42.9005 46.697 42.9005 46.6752C43.0913 46.65 43.2821 46.616 43.4729 46.6004C44.0396 46.552 44.6065 46.4929 45.1744 46.4732C45.7058 46.4396 46.2381 46.5234 46.7335 46.7187C46.9237 46.7851 47.0953 46.8963 47.2336 47.0428C47.0595 47.2953 47.0595 47.2953 46.7937 47.2071C46.4831 47.1045 46.1761 46.9873 45.8594 46.9039C45.2352 46.7737 44.5963 46.7282 43.9599 46.7685L43.959 46.7695ZM46.2976 54.3492C46.2027 54.3593 46.1086 54.3763 46.0161 54.4001C45.9235 54.4428 45.8342 54.4924 45.749 54.5484C45.8263 54.3364 45.8793 54.1895 46.0426 54.151C46.1764 54.1185 46.2429 54.2188 46.2985 54.3481L46.2976 54.3492ZM44.7627 52.615L44.8183 52.5938C44.8354 52.6261 44.8491 52.6601 44.8594 52.6951C44.9605 53.2762 45.1648 53.8345 45.4625 54.3437C45.5897 54.5442 45.7307 54.734 45.8408 54.9466C45.9564 55.1156 46.124 55.2421 46.3182 55.307C46.7772 55.5077 47.2571 55.657 47.749 55.7522C48.182 55.8529 48.6302 55.871 49.0699 55.8054C49.2395 55.7823 49.407 55.7316 49.5749 55.6941C49.2625 55.9227 48.8926 56.06 48.5067 56.0905C47.7973 56.1739 47.1024 56.1582 46.4414 55.8296C46.1372 55.6806 45.866 55.4722 45.6438 55.2167C44.9993 54.4653 44.8651 53.5434 44.7636 52.614L44.7627 52.615ZM44.8075 66.4798C44.8255 66.4067 44.862 66.3395 44.9134 66.2845C44.9648 66.2295 45.0294 66.1886 45.1011 66.1656C45.1223 66.2392 45.1409 66.2986 45.1543 66.36C45.2679 66.8979 45.3597 67.4527 45.7441 67.8743C46.0267 68.1625 46.3262 68.4337 46.6408 68.6865C46.8075 68.8292 46.9864 68.9583 47.1617 69.0961C46.9756 69.356 46.7918 69.6098 46.5997 69.8769C46.004 69.4576 45.4515 69.0177 45.071 68.3446C45.1615 68.3577 45.2173 68.3658 45.298 68.3759C45.2802 68.3195 45.2572 68.2649 45.2293 68.2127C45.0211 67.9229 44.87 67.596 44.7842 67.2496C44.7213 66.9954 44.7296 66.7289 44.8083 66.4792L44.8075 66.4798ZM46.4717 70.3289L46.3532 70.1633C46.5111 70.164 46.5425 70.2013 46.4725 70.3282L46.4717 70.3289ZM44.6334 68.5415C45.0432 68.9899 45.4299 69.4031 45.8045 69.8286C45.9822 70.0291 46.1393 70.2492 46.2999 70.4667C46.343 70.5209 46.3711 70.5855 46.3814 70.654C46.3918 70.7224 46.3841 70.7924 46.3591 70.857C45.9048 70.3567 45.4698 69.8792 45.0358 69.4007C45.0165 69.4103 44.9985 69.42 44.9803 69.4298C44.9863 69.486 44.9981 69.5415 45.0154 69.5954C45.2383 70.0439 45.5055 70.4689 45.813 70.8642C45.9133 71.0056 46.0328 71.1336 46.1272 71.2786C46.1635 71.3573 46.1884 71.4408 46.2009 71.5265C46.1797 71.5386 46.1585 71.5506 46.1373 71.5627C46.0782 71.5072 46.0154 71.4552 45.9622 71.3959C45.778 71.2122 45.6071 71.0155 45.4509 70.8074C45.1965 70.4243 44.9688 70.0219 44.7367 69.6231C44.708 69.5525 44.6902 69.478 44.6837 69.402C44.6595 69.292 44.64 69.1807 44.6148 69.0709C44.5681 68.8962 44.5749 68.7116 44.6343 68.5409L44.6334 68.5415ZM45.442 72.4824C45.3091 72.2335 45.23 71.9543 45.0805 71.6897C45.0226 72.0006 44.9646 72.3124 44.9065 72.6251C44.8853 72.6251 44.8641 72.6287 44.8429 72.6299C44.5938 72.2293 44.4239 71.7845 44.3426 71.3198C44.2945 70.985 44.36 70.6437 44.5287 70.3505C44.7439 70.6395 44.93 70.8956 45.1197 71.1483C45.3856 71.5023 45.6574 71.8527 45.9196 72.2093C45.9745 72.273 46.0076 72.3526 46.014 72.4364C45.9983 72.6829 45.9584 72.9284 45.9186 73.2485C45.7274 73.0151 45.5674 72.7577 45.4428 72.4828L45.442 72.4824ZM51.0216 84.6448C50.9419 84.4067 50.852 84.171 50.7848 83.9306C50.4789 82.8538 50.1552 81.7818 49.8881 80.6955C49.7127 79.9859 49.6161 79.2539 49.4988 78.5331C49.407 77.9711 49.3292 77.4078 49.2597 76.8434C49.1961 76.3264 49.1278 75.8078 49.1026 75.2882C49.0336 73.919 48.9788 72.5485 48.9381 71.1769C48.9201 70.5288 48.9867 69.8812 49.1363 69.2504C49.1666 69.1201 49.2088 68.9931 49.2463 68.8589C48.9318 69.125 48.7209 69.4934 48.6506 69.8994C48.5781 70.4035 48.5622 70.917 48.5249 71.4258C48.5223 71.447 48.5478 71.4718 48.5864 71.5417C48.6324 71.3509 48.6674 71.2025 48.7025 71.056C48.7121 71.0548 48.7237 71.0524 48.7339 71.0512C48.7526 71.1918 48.7635 71.3333 48.7666 71.4752C48.7424 72.3441 48.7134 73.2126 48.6794 74.0807C48.6748 74.2148 48.637 74.3478 48.6252 74.482C48.4922 76.274 48.3884 78.0662 48.4064 79.8646C48.4087 80.0362 48.4064 80.2089 48.4064 80.3963C48.2275 80.0359 47.7973 76.4408 47.7704 75.2023C47.7305 73.4476 47.6856 71.6942 48.0265 69.9467C47.8719 69.9611 47.8768 70.0688 47.8586 70.1436C47.7462 70.6015 47.6241 71.0596 47.5359 71.5216C47.3886 72.2975 47.2603 73.0781 47.1299 73.8576C47.0852 74.1235 47.0598 74.3931 47.0199 74.66C46.9099 75.3828 46.7842 76.1042 46.6875 76.8294C46.6378 77.2304 46.6104 77.6338 46.6054 78.0378C46.5908 78.705 46.5842 79.372 46.6006 80.0391C46.6126 80.5577 46.6642 81.076 46.7044 81.5933C46.7358 81.9961 46.768 82.4006 46.8104 82.803C46.8588 83.2719 46.9192 83.7396 46.9747 84.2073C46.9603 84.2145 46.9457 84.2206 46.93 84.2285C46.8588 83.9721 46.7765 83.7173 46.718 83.4574C46.5527 82.7141 46.3725 81.9709 46.2467 81.2206C46.1407 80.5846 46.0994 79.9371 46.0328 79.2942C45.9156 78.1462 46.0099 76.9967 46.022 75.8487C46.0479 75.251 46.1129 74.6555 46.2166 74.0662C46.3338 73.2444 46.4647 72.4246 46.6093 71.607C46.709 70.9965 46.8731 70.3982 47.0988 69.8222C47.1798 69.6139 47.3217 69.4349 47.506 69.3085C47.5927 69.2627 47.6844 69.2271 47.7793 69.2025C47.7924 69.2195 47.8058 69.2352 47.8191 69.2509C47.604 69.7887 47.3515 70.3143 47.1846 70.8667C47.0215 71.4423 46.8948 72.0275 46.8051 72.6189C46.7085 73.1966 46.6589 73.7828 46.6143 74.3713C46.7324 74.1908 46.8046 73.9842 46.8246 73.7694C47.0153 72.647 47.2646 71.5353 47.5715 70.4389C47.6417 70.1888 47.7106 69.9386 47.7962 69.6944C47.8787 69.4527 48.0462 69.2493 48.2675 69.122C48.6052 68.8963 48.8968 68.6085 49.127 68.274C49.2 68.1841 49.28 68.1 49.3661 68.0225C49.4169 67.9564 49.4918 67.9131 49.5745 67.902C49.6572 67.8909 49.7408 67.913 49.8073 67.9634C49.8484 67.9846 49.894 67.9953 49.9402 67.9948C50.1371 68.0128 50.1662 68.0454 50.1022 68.2172C49.7335 69.2136 49.6756 70.2524 49.6973 71.2988C49.7165 72.2064 49.742 73.1152 49.7854 74.0215C49.8194 74.7527 49.8736 75.4843 49.9389 76.2138C49.9837 76.7014 50.0755 77.1854 50.1276 77.6736C50.1912 78.2672 50.2253 78.8653 50.2942 79.4587C50.3886 80.2816 50.4889 81.1057 50.6146 81.9251C50.7462 82.7832 50.9114 83.6351 51.0598 84.4903C51.0647 84.5171 51.064 84.5447 51.0576 84.5712C51.0511 84.5977 51.0392 84.6226 51.0225 84.6442L51.0216 84.6448ZM56.2648 67.3479C55.544 67.7976 54.8132 68.229 54.1088 68.7016C53.2394 69.2938 52.419 69.955 51.6555 70.6787C51.4294 70.889 51.1933 71.0876 50.9472 71.2744C50.7515 71.4256 50.5376 71.55 50.3019 71.7058C50.2754 71.3397 50.215 71.0242 50.5122 70.7463C50.7099 70.5235 50.8935 70.2887 51.0621 70.0431C51.1045 69.9922 51.1431 69.9331 51.1893 69.8835L51.2075 69.8654C51.2079 69.8643 51.2086 69.8633 51.2094 69.8624C51.2103 69.8616 51.2113 69.861 51.2124 69.8606C51.2219 69.8518 51.2319 69.8438 51.2425 69.8364L51.2533 69.8292C51.2621 69.8229 51.2714 69.8172 51.2811 69.8122C51.2972 69.8038 51.3143 69.7973 51.332 69.7929C51.3421 69.7892 51.3526 69.7867 51.3634 69.7855C51.3649 69.786 51.3666 69.786 51.3682 69.7855C51.3706 69.783 51.3731 69.7794 51.3754 69.777C51.3803 69.7698 51.3852 69.7637 51.3911 69.7558C51.3888 69.7654 51.3852 69.7739 51.3827 69.7836C51.379 69.7836 51.3754 69.7849 51.3718 69.7849H51.3682C51.3392 69.8296 51.3101 69.8741 51.2811 69.9178C51.234 69.989 51.1857 70.0603 51.1361 70.1341C51.1109 70.1703 51.0867 70.2078 51.0613 70.2454C51.0358 70.2829 51.0093 70.3202 50.9839 70.3588C51.0395 70.3769 51.0991 70.379 51.1558 70.3646C51.2125 70.3503 51.2639 70.3202 51.3042 70.2778C51.639 70.035 51.975 69.7902 52.3006 69.5335C52.7677 69.1614 53.2644 68.8281 53.7859 68.5371C53.9805 68.4311 54.1654 68.3075 54.3502 68.1854C54.9161 67.8349 55.508 67.5283 56.1206 67.2682C56.2669 67.2017 56.4107 67.1292 56.5981 67.0397C56.5226 67.1753 56.4059 67.2833 56.2648 67.3479ZM59.9748 78.902C58.77 76.7001 57.5228 74.5212 56.533 72.2104C57.9825 74.2718 59.1407 76.5233 59.9748 78.9013V78.902ZM57.5629 54.166C57.0427 54.8022 56.4484 55.3738 55.7925 55.8688C55.0048 56.4485 54.0211 56.6963 53.0528 56.5588C52.5406 56.5151 52.047 56.3458 51.6158 56.066C51.5022 55.985 51.4019 55.8845 51.2955 55.7927C51.3112 55.7783 51.3258 55.7626 51.3415 55.7479C52.3072 56.2835 53.3186 56.2355 54.3494 55.9932C55.6377 55.6901 56.6566 54.9544 57.5472 54.0115C57.6462 53.9055 57.7477 53.8048 57.8493 53.7019C57.8529 53.6973 57.865 53.7019 57.9169 53.7019C57.7889 53.8709 57.6837 54.0254 57.5629 54.166ZM58.219 48.9442C58.2169 48.9877 58.206 49.0303 58.187 49.0695C58.1679 49.1086 58.1412 49.1435 58.1083 49.1721C58.0755 49.2006 58.0372 49.2222 57.9958 49.2356C57.9544 49.249 57.9107 49.2539 57.8673 49.2499C57.674 49.227 57.448 49.0577 57.4554 48.943C57.4827 48.8404 57.5429 48.7497 57.6267 48.6846C57.7105 48.6195 57.8133 48.5837 57.9195 48.5826C58.0054 48.5952 58.0836 48.6393 58.1389 48.7063C58.1942 48.7732 58.2228 48.8583 58.219 48.9451V48.9442ZM62.5438 46.8993C62.1874 46.8993 61.8309 46.8993 61.4743 46.8872C60.5967 46.8906 59.7263 47.0456 58.9014 47.3453C58.7755 47.392 58.6468 47.4308 58.516 47.4613C58.3918 47.4725 58.2669 47.4737 58.1425 47.4649C58.2348 47.2892 58.3916 47.1562 58.5801 47.0939C58.8819 46.9695 59.1915 46.865 59.5069 46.781C59.8595 46.6872 60.2174 46.6149 60.5788 46.5645C60.8447 46.5279 61.1138 46.5208 61.3812 46.5433C61.8841 46.587 62.3855 46.6631 62.9366 46.732C62.8915 46.7917 62.8315 46.8386 62.7627 46.868C62.6939 46.8975 62.6186 46.9086 62.5442 46.9001L62.5438 46.8993ZM64.2296 49.8461C64.1859 49.7877 64.149 49.7245 64.1198 49.6576C63.8911 49.0331 63.7277 48.3866 63.6322 47.7284C63.6068 47.4783 63.5536 47.233 63.5173 46.9839C63.5104 46.9168 63.5088 46.8493 63.5124 46.782C63.5137 46.6794 63.5281 46.5851 63.6564 46.57C63.6824 46.5633 63.7096 46.5625 63.7359 46.5679C63.7623 46.5732 63.7871 46.5845 63.8084 46.6008C63.8297 46.6172 63.847 46.6382 63.859 46.6622C63.871 46.6863 63.8773 46.7128 63.8775 46.7396C63.9089 46.9487 63.9549 47.1579 63.9742 47.368C64.0124 48.0522 64.1065 48.7321 64.2557 49.4009C64.2815 49.5413 64.2965 49.6835 64.3004 49.8262C64.2784 49.8331 64.2542 49.8412 64.2301 49.8478L64.2296 49.8461ZM64.8135 49.5718C64.794 49.5766 64.7747 49.5826 64.7567 49.5874C64.7135 49.4994 64.6763 49.4085 64.6454 49.3154C64.4426 48.6853 64.2946 48.0387 64.2031 47.3831C64.1862 47.1728 64.1306 46.9663 64.1052 46.756C64.0861 46.6885 64.0944 46.6162 64.1283 46.5548C64.1623 46.4935 64.2191 46.448 64.2865 46.4284C64.3358 46.4992 64.3741 46.577 64.4001 46.6593C64.4834 47.1704 64.5548 47.6841 64.6322 48.1952C64.6973 48.6218 64.7662 49.0473 64.8304 49.4738C64.8302 49.5077 64.8246 49.5413 64.8139 49.5735L64.8135 49.5718ZM68.978 45.7286C68.7494 45.7067 68.5189 45.7189 68.2939 45.7649C67.1646 45.9655 66.0593 46.2831 64.9958 46.7125C64.9513 46.7293 64.9066 46.7498 64.8618 46.7668C64.8426 46.7772 64.8214 46.7835 64.7997 46.7851C64.7779 46.7866 64.756 46.7836 64.7355 46.776C64.715 46.7685 64.6964 46.7566 64.6808 46.7413C64.6653 46.726 64.6532 46.7075 64.6454 46.6871C64.5934 46.5811 64.6479 46.5238 64.7374 46.484C64.9443 46.3807 65.1566 46.2887 65.3734 46.2084C65.823 46.0646 66.2761 45.9353 66.7317 45.8132C67.3918 45.6316 68.0697 45.5226 68.7535 45.4882C68.9741 45.49 69.1942 45.5122 69.4107 45.5546C69.492 45.5827 69.569 45.6222 69.6392 45.6718C69.4301 45.7581 69.1995 45.7785 68.9784 45.7303L68.978 45.7286ZM73.7141 40.6493C73.0897 41.412 72.3842 42.1045 71.61 42.7146C70.9521 43.222 70.3583 43.8077 69.8419 44.4585C69.7103 44.6339 69.5689 44.8018 69.4323 44.9735C69.4033 44.9625 69.3755 44.9504 69.3475 44.9383C69.3726 44.8527 69.402 44.7684 69.4357 44.6858C69.6472 44.2613 69.9315 43.8773 70.2757 43.551C70.785 43.0369 71.3258 42.555 71.8949 42.1081C72.677 41.4784 73.4491 40.8361 74.0461 40.015C74.0607 39.9955 74.0921 39.9883 74.1597 39.9497C74.0487 40.2052 73.8985 40.4418 73.7145 40.651L73.7141 40.6493ZM75.6573 39.6764C75.2791 39.6499 74.6929 39.2838 74.5973 38.9828C74.9656 39.2257 75.3191 39.4575 75.6577 39.6781L75.6573 39.6764ZM74.4209 39.4119C74.433 39.3907 74.444 39.3695 74.4548 39.3483C74.8477 39.5707 75.2416 39.7935 75.6632 40.0322C75.1949 39.9605 74.7607 39.7442 74.4213 39.4136L74.4209 39.4119Z" fill="#1D3024"/>
<path d="M51.3693 69.7845H51.3729C51.3428 69.8292 51.3138 69.8726 51.2822 69.9174C51.3112 69.8737 51.3403 69.8292 51.3693 69.7845Z" fill="#F28E00"/>
<path d="M51.3845 69.7837C51.3807 69.7837 51.3768 69.785 51.3729 69.785C51.3743 69.7823 51.3768 69.7798 51.3781 69.777L51.3845 69.7837Z" fill="#F28E00"/>
<path d="M71.8756 31.3612C72.0701 31.5566 72.2323 31.7816 72.3562 32.0279C72.6081 32.5041 72.8493 32.9857 73.1252 33.5242C72.9766 33.3725 72.8428 33.207 72.7255 33.03C72.5606 32.7929 72.4276 32.5351 72.3299 32.2632C72.2255 32.0265 72.0959 31.8016 71.9435 31.5925C71.9057 31.5301 71.8587 31.4735 71.8163 31.4142L71.8756 31.3612Z" fill="#F28E00"/>
<path d="M50.9517 32.7765C51.2262 33.3162 51.4519 33.8794 51.626 34.4593C51.3494 33.9206 51.1237 33.3572 50.9517 32.7765Z" fill="#F28E00"/>
<path d="M57.7378 40.4481C58.2028 40.6399 58.635 40.9032 59.0187 41.2285L57.6996 40.5028L57.7378 40.4481Z" fill="#F28E00"/>
<path d="M58.749 38.7805L60.3797 38.898C59.8334 38.9465 59.2828 38.9069 58.749 38.7805Z" fill="#F28E00"/>
<path d="M57.0363 43.142L56.5631 42.1214L56.6188 42.097C56.8676 42.3953 57.0328 42.7543 57.0975 43.1373L57.0363 43.142Z" fill="#F28E00"/>
<path d="M55.1051 47.5073L55.3142 46.7581C55.365 46.8888 55.3721 47.0324 55.3345 47.1675C55.2968 47.3026 55.2163 47.4218 55.1051 47.5073Z" fill="#F28E00"/>
<path d="M58.816 37.0445L59.7723 36.8961L59.7825 36.9372C59.6816 36.9622 59.5813 36.9898 59.4798 37.0114C59.3782 37.033 59.2722 37.0523 59.1677 37.0671C59.0554 37.083 58.9419 37.0926 58.8285 37.1049L58.816 37.0445Z" fill="#F28E00"/>
<path d="M55.7571 46.8408C55.9627 47.0182 55.9792 47.1164 55.8391 47.1923C55.8193 47.203 55.7974 47.2094 55.7748 47.2109C55.7523 47.2123 55.7298 47.2089 55.7087 47.2007C55.6927 47.1851 55.6807 47.1659 55.6735 47.1447C55.6663 47.1235 55.6642 47.101 55.6674 47.0788C55.6906 46.9971 55.7206 46.9175 55.7571 46.8408Z" fill="#F28E00"/>
<path d="M55.4734 47.5408C55.5071 47.4984 55.5395 47.456 55.5747 47.4136C55.6383 47.3417 55.7121 47.304 55.7929 47.3782C55.847 47.4278 55.8018 47.5857 55.7128 47.6177C55.6394 47.6307 55.5645 47.6312 55.491 47.6192L55.4734 47.5408Z" fill="#F28E00"/>
<path d="M47.792 37.9346H47.382V37.9317H47.7929L47.792 37.9346Z" fill="#F28E00"/>
<path d="M58.3318 37.2344L57.9828 37.259L57.9801 37.2344L58.3259 37.1799L58.3318 37.2344Z" fill="#F28E00"/>
<path d="M55.9175 37.4027L55.742 37.1986L55.7844 37.1562L55.9788 37.3483L55.9175 37.4027Z" fill="#F28E00"/>
<path d="M51.3837 69.7832L51.4549 69.5472L51.5215 69.5754C51.473 69.6418 51.4244 69.7081 51.3771 69.7758L51.3837 69.7832Z" fill="#F28E00"/>
<path d="M46.3536 70.1627C46.5117 70.1627 46.5431 70.2012 46.4721 70.3276L46.3536 70.1627Z" fill="#F28E00"/>
<path d="M55.8196 36.3088C55.6837 36.2485 55.5737 36.1419 55.509 36.008C55.686 36.0442 55.7348 36.1517 55.8196 36.3088Z" fill="#0B762E"/>
</svg>
