<svg width="252" height="18" viewBox="0 0 252 18" fill="none" xmlns="http://www.w3.org/2000/svg">
<path d="M9.36001 17.28C8.04801 17.28 6.82401 17.08 5.68801 16.68C4.55201 16.264 3.55201 15.672 2.68801 14.904C1.84001 14.136 1.17601 13.224 0.696012 12.168C0.232012 11.112 1.18017e-05 9.93599 1.18017e-05 8.63999C1.18017e-05 7.40799 0.248012 6.27999 0.744012 5.25599C1.25601 4.21599 1.94401 3.31199 2.80801 2.54399C3.67201 1.75999 4.67201 1.15999 5.80801 0.743993C6.94401 0.311993 8.14401 0.0959926 9.40801 0.0959926C10.432 0.0959926 11.416 0.231993 12.36 0.503993C13.32 0.775992 14.184 1.12799 14.952 1.55999C15.736 1.99199 16.36 2.44799 16.824 2.92799L15.24 5.03999C14.68 4.55999 14.088 4.14399 13.464 3.79199C12.856 3.42399 12.2 3.14399 11.496 2.95199C10.792 2.74399 10.032 2.63999 9.21601 2.63999C8.38401 2.63999 7.57601 2.78399 6.79201 3.07199C6.00801 3.35999 5.30401 3.76799 4.68001 4.29599C4.05601 4.80799 3.56001 5.43999 3.19201 6.19199C2.82401 6.92799 2.64001 7.74399 2.64001 8.63999C2.64001 9.63199 2.82401 10.504 3.19201 11.256C3.57601 12.008 4.09601 12.648 4.75201 13.176C5.40801 13.688 6.15201 14.08 6.98401 14.352C7.81601 14.608 8.68801 14.736 9.60001 14.736C10.48 14.736 11.272 14.624 11.976 14.4C12.68 14.176 13.312 13.888 13.872 13.536C14.432 13.184 14.944 12.832 15.408 12.48L16.656 14.64C16.224 15.008 15.632 15.4 14.88 15.816C14.144 16.232 13.304 16.584 12.36 16.872C11.416 17.144 10.416 17.28 9.36001 17.28ZM31.8696 17.28C30.4456 17.28 29.1416 17.064 27.9576 16.632C26.7736 16.184 25.7416 15.568 24.8616 14.784C23.9816 14 23.3016 13.088 22.8216 12.048C22.3416 10.992 22.1016 9.85599 22.1016 8.63999C22.1016 7.42399 22.3416 6.29599 22.8216 5.25599C23.3016 4.19999 23.9816 3.27999 24.8616 2.49599C25.7416 1.71199 26.7736 1.10399 27.9576 0.671992C29.1416 0.223992 30.4456 -7.62939e-06 31.8696 -7.62939e-06C33.2776 -7.62939e-06 34.5736 0.223992 35.7576 0.671992C36.9416 1.10399 37.9736 1.71999 38.8536 2.51999C39.7336 3.30399 40.4136 4.22399 40.8936 5.27999C41.3896 6.31999 41.6376 7.43999 41.6376 8.63999C41.6376 9.83999 41.3896 10.968 40.8936 12.024C40.4136 13.064 39.7336 13.984 38.8536 14.784C37.9736 15.568 36.9416 16.184 35.7576 16.632C34.5736 17.064 33.2776 17.28 31.8696 17.28ZM31.8696 14.76C32.9096 14.76 33.8616 14.608 34.7256 14.304C35.6056 13.984 36.3576 13.552 36.9816 13.008C37.6216 12.448 38.1176 11.8 38.4696 11.064C38.8216 10.312 38.9976 9.50399 38.9976 8.63999C38.9976 7.77599 38.8216 6.97599 38.4696 6.23999C38.1176 5.48799 37.6216 4.83999 36.9816 4.29599C36.3576 3.73599 35.6056 3.30399 34.7256 2.99999C33.8616 2.67999 32.9096 2.51999 31.8696 2.51999C30.8296 2.51999 29.8696 2.67999 28.9896 2.99999C28.1256 3.30399 27.3736 3.73599 26.7336 4.29599C26.0936 4.83999 25.5976 5.48799 25.2456 6.23999C24.9096 6.97599 24.7416 7.77599 24.7416 8.63999C24.7416 9.50399 24.9096 10.312 25.2456 11.064C25.5976 11.8 26.0936 12.448 26.7336 13.008C27.3736 13.552 28.1256 13.984 28.9896 14.304C29.8696 14.608 30.8296 14.76 31.8696 14.76ZM48.2876 17.04V0.239992H50.8796V17.04H48.2876ZM49.2236 10.08V7.58399H60.4076V10.08H49.2236ZM49.4876 2.73599V0.239992H61.4876V2.73599H49.4876ZM68.3736 17.04V0.239992H70.9656V17.04H68.3736ZM69.3096 10.08V7.58399H80.4936V10.08H69.3096ZM69.5736 2.73599V0.239992H81.5736V2.73599H69.5736ZM88.4595 17.04V0.239992H101.732V2.73599H91.0515V14.544H101.732V17.04H88.4595ZM89.8275 9.67199V7.17599H100.412V9.67199H89.8275ZM109.131 17.04V0.239992H122.403V2.73599H111.723V14.544H122.403V17.04H109.131ZM110.499 9.67199V7.17599H121.083V9.67199H110.499ZM148.555 17.28C147.243 17.28 146.019 17.08 144.883 16.68C143.747 16.264 142.747 15.672 141.883 14.904C141.035 14.136 140.371 13.224 139.891 12.168C139.427 11.112 139.195 9.93599 139.195 8.63999C139.195 7.40799 139.443 6.27999 139.939 5.25599C140.451 4.21599 141.139 3.31199 142.003 2.54399C142.867 1.75999 143.867 1.15999 145.003 0.743993C146.139 0.311993 147.339 0.0959926 148.603 0.0959926C149.627 0.0959926 150.611 0.231993 151.555 0.503993C152.515 0.775992 153.379 1.12799 154.147 1.55999C154.931 1.99199 155.555 2.44799 156.019 2.92799L154.435 5.03999C153.875 4.55999 153.283 4.14399 152.659 3.79199C152.051 3.42399 151.395 3.14399 150.691 2.95199C149.987 2.74399 149.227 2.63999 148.411 2.63999C147.579 2.63999 146.771 2.78399 145.987 3.07199C145.203 3.35999 144.499 3.76799 143.875 4.29599C143.251 4.80799 142.755 5.43999 142.387 6.19199C142.019 6.92799 141.835 7.74399 141.835 8.63999C141.835 9.63199 142.019 10.504 142.387 11.256C142.771 12.008 143.291 12.648 143.947 13.176C144.603 13.688 145.347 14.08 146.179 14.352C147.011 14.608 147.883 14.736 148.795 14.736C149.675 14.736 150.467 14.624 151.171 14.4C151.875 14.176 152.507 13.888 153.067 13.536C153.627 13.184 154.139 12.832 154.603 12.48L155.851 14.64C155.419 15.008 154.827 15.4 154.075 15.816C153.339 16.232 152.499 16.584 151.555 16.872C150.611 17.144 149.611 17.28 148.555 17.28ZM171.065 17.28C169.641 17.28 168.337 17.064 167.153 16.632C165.969 16.184 164.937 15.568 164.057 14.784C163.177 14 162.497 13.088 162.017 12.048C161.537 10.992 161.297 9.85599 161.297 8.63999C161.297 7.42399 161.537 6.29599 162.017 5.25599C162.497 4.19999 163.177 3.27999 164.057 2.49599C164.937 1.71199 165.969 1.10399 167.153 0.671992C168.337 0.223992 169.641 -7.62939e-06 171.065 -7.62939e-06C172.473 -7.62939e-06 173.769 0.223992 174.953 0.671992C176.137 1.10399 177.169 1.71999 178.049 2.51999C178.929 3.30399 179.609 4.22399 180.089 5.27999C180.585 6.31999 180.833 7.43999 180.833 8.63999C180.833 9.83999 180.585 10.968 180.089 12.024C179.609 13.064 178.929 13.984 178.049 14.784C177.169 15.568 176.137 16.184 174.953 16.632C173.769 17.064 172.473 17.28 171.065 17.28ZM171.065 14.76C172.105 14.76 173.057 14.608 173.921 14.304C174.801 13.984 175.553 13.552 176.177 13.008C176.817 12.448 177.313 11.8 177.665 11.064C178.017 10.312 178.193 9.50399 178.193 8.63999C178.193 7.77599 178.017 6.97599 177.665 6.23999C177.313 5.48799 176.817 4.83999 176.177 4.29599C175.553 3.73599 174.801 3.30399 173.921 2.99999C173.057 2.67999 172.105 2.51999 171.065 2.51999C170.025 2.51999 169.065 2.67999 168.185 2.99999C167.321 3.30399 166.569 3.73599 165.929 4.29599C165.289 4.83999 164.793 5.48799 164.441 6.23999C164.105 6.97599 163.937 7.77599 163.937 8.63999C163.937 9.50399 164.105 10.312 164.441 11.064C164.793 11.8 165.289 12.448 165.929 13.008C166.569 13.552 167.321 13.984 168.185 14.304C169.065 14.608 170.025 14.76 171.065 14.76ZM187.483 17.04V0.239992H200.755V2.73599H190.075V14.544H200.755V17.04H187.483ZM188.851 9.67199V7.17599H199.435V9.67199H188.851ZM208.155 17.04V0.239992H210.699L218.043 9.81599H217.083L224.451 0.239992H226.947V17.04H224.355V9.95999C224.355 8.61599 224.387 7.35999 224.451 6.19199C224.531 5.02399 224.659 3.83999 224.835 2.63999L225.123 3.59999L218.331 12.216H216.747L210.003 3.62399L210.267 2.63999C210.459 3.82399 210.587 4.99999 210.651 6.16799C210.715 7.31999 210.747 8.58399 210.747 9.95999V17.04H208.155ZM232.833 17.04L240.681 0.239992H243.633L251.457 17.04H248.625L243.345 5.75999C243.217 5.48799 243.081 5.19999 242.937 4.89599C242.793 4.57599 242.649 4.24799 242.505 3.91199C242.361 3.57599 242.225 3.23999 242.097 2.90399C241.969 2.55199 241.849 2.20799 241.737 1.87199L242.457 1.84799C242.329 2.21599 242.193 2.57599 242.049 2.92799C241.921 3.27999 241.777 3.62399 241.617 3.95999C241.473 4.29599 241.329 4.62399 241.185 4.94399C241.041 5.24799 240.905 5.55199 240.777 5.85599L235.545 17.04H232.833ZM236.265 13.056L237.273 10.56H246.777L247.329 13.056H236.265Z" fill="white"/>
</svg>
