<svg width="75" height="30" viewBox="0 0 75 30" fill="none" xmlns="http://www.w3.org/2000/svg">
<path d="M15.074 19.14C14.374 19.14 13.7487 18.9767 13.198 18.65C12.6567 18.3233 12.2273 17.8753 11.91 17.306C11.602 16.7367 11.448 16.0833 11.448 15.346C11.448 14.6087 11.602 13.9553 11.91 13.386C12.2273 12.8167 12.6613 12.3733 13.212 12.056C13.7627 11.7293 14.3973 11.566 15.116 11.566C15.7133 11.566 16.2547 11.6827 16.74 11.916C17.2347 12.1493 17.6453 12.476 17.972 12.896L17.524 13.442C17.3187 13.19 17.0853 12.98 16.824 12.812C16.5627 12.6347 16.2827 12.4993 15.984 12.406C15.6853 12.3127 15.3773 12.266 15.06 12.266C14.5093 12.266 14.0193 12.4013 13.59 12.672C13.1607 12.9333 12.82 13.2973 12.568 13.764C12.316 14.2213 12.19 14.7487 12.19 15.346C12.19 15.9433 12.3113 16.4753 12.554 16.942C12.806 17.4087 13.1467 17.7773 13.576 18.048C14.0053 18.3093 14.486 18.44 15.018 18.44C15.326 18.44 15.6293 18.3933 15.928 18.3C16.2267 18.2067 16.5067 18.076 16.768 17.908C17.0293 17.7307 17.2673 17.516 17.482 17.264L17.93 17.81C17.594 18.23 17.1693 18.5567 16.656 18.79C16.152 19.0233 15.6247 19.14 15.074 19.14ZM22.4461 19.14C21.7181 19.14 21.0694 18.9767 20.5001 18.65C19.9401 18.3233 19.4968 17.8707 19.1701 17.292C18.8528 16.7133 18.6941 16.0553 18.6941 15.318C18.6941 14.59 18.8528 13.946 19.1701 13.386C19.4968 12.8167 19.9401 12.3733 20.5001 12.056C21.0694 11.7293 21.7181 11.566 22.4461 11.566C23.1741 11.566 23.8181 11.7293 24.3781 12.056C24.9474 12.3733 25.3908 12.8167 25.7081 13.386C26.0254 13.946 26.1841 14.59 26.1841 15.318C26.1841 16.0553 26.0254 16.7133 25.7081 17.292C25.3908 17.8707 24.9474 18.3233 24.3781 18.65C23.8181 18.9767 23.1741 19.14 22.4461 19.14ZM22.4461 18.44C23.0248 18.44 23.5381 18.3047 23.9861 18.034C24.4434 17.7633 24.7981 17.3947 25.0501 16.928C25.3114 16.4613 25.4421 15.9247 25.4421 15.318C25.4421 14.73 25.3114 14.2073 25.0501 13.75C24.7981 13.2833 24.4434 12.9193 23.9861 12.658C23.5381 12.3967 23.0248 12.266 22.4461 12.266C21.8581 12.266 21.3354 12.3967 20.8781 12.658C20.4301 12.9193 20.0754 13.2833 19.8141 13.75C19.5621 14.2073 19.4361 14.73 19.4361 15.318C19.4361 15.9247 19.5621 16.4613 19.8141 16.928C20.0754 17.3947 20.4301 17.7633 20.8781 18.034C21.3354 18.3047 21.8581 18.44 22.4461 18.44ZM27.649 19V11.72H28.321L28.391 13.26H28.307C28.4096 12.952 28.5963 12.672 28.867 12.42C29.1376 12.1587 29.4596 11.9533 29.833 11.804C30.2156 11.6453 30.617 11.566 31.037 11.566C31.5503 11.566 31.9843 11.6733 32.339 11.888C32.703 12.1027 32.9736 12.434 33.151 12.882C33.3376 13.33 33.431 13.8993 33.431 14.59V19H32.731V14.618C32.731 14.0767 32.6563 13.6333 32.507 13.288C32.367 12.9333 32.157 12.672 31.877 12.504C31.597 12.3267 31.247 12.238 30.827 12.238C30.463 12.238 30.1316 12.3033 29.833 12.434C29.5343 12.5553 29.273 12.7233 29.049 12.938C28.825 13.1527 28.6523 13.4 28.531 13.68C28.4096 13.9507 28.349 14.24 28.349 14.548V19H27.999C27.9896 19 27.957 19 27.901 19C27.8543 19 27.7703 19 27.649 19ZM36.5616 19V9.774H37.2616V19H36.5616ZM34.8116 12.364V11.72H39.2216V12.364H34.8116ZM43.3165 19.14C42.6538 19.14 42.0612 18.9767 41.5385 18.65C41.0158 18.3233 40.6005 17.8753 40.2925 17.306C39.9938 16.7367 39.8445 16.088 39.8445 15.36C39.8445 14.6227 39.9985 13.9693 40.3065 13.4C40.6238 12.8307 41.0438 12.3827 41.5665 12.056C42.0892 11.7293 42.6725 11.566 43.3165 11.566C43.6898 11.566 44.0445 11.622 44.3805 11.734C44.7165 11.846 45.0198 12.0047 45.2905 12.21C45.5612 12.406 45.7945 12.6393 45.9905 12.91C46.1865 13.1807 46.3265 13.4747 46.4105 13.792L46.1305 13.61L46.2005 11.72H46.8725V19H46.1725V17.18L46.4105 16.914C46.3265 17.222 46.1865 17.5113 45.9905 17.782C45.7945 18.0527 45.5612 18.2907 45.2905 18.496C45.0198 18.7013 44.7165 18.86 44.3805 18.972C44.0445 19.084 43.6898 19.14 43.3165 19.14ZM43.4145 18.44C43.9465 18.44 44.4225 18.3093 44.8425 18.048C45.2718 17.7773 45.6078 17.4133 45.8505 16.956C46.1025 16.4893 46.2285 15.9527 46.2285 15.346C46.2285 14.7487 46.1072 14.2213 45.8645 13.764C45.6218 13.2973 45.2858 12.9333 44.8565 12.672C44.4365 12.4013 43.9558 12.266 43.4145 12.266C42.8638 12.266 42.3738 12.4013 41.9445 12.672C41.5245 12.9333 41.1932 13.2973 40.9505 13.764C40.7078 14.2213 40.5865 14.7487 40.5865 15.346C40.5865 15.934 40.7032 16.4613 40.9365 16.928C41.1792 17.3947 41.5105 17.7633 41.9305 18.034C42.3598 18.3047 42.8545 18.44 43.4145 18.44ZM51.9744 19.14C51.2744 19.14 50.6491 18.9767 50.0984 18.65C49.5571 18.3233 49.1277 17.8753 48.8104 17.306C48.5024 16.7367 48.3484 16.0833 48.3484 15.346C48.3484 14.6087 48.5024 13.9553 48.8104 13.386C49.1277 12.8167 49.5617 12.3733 50.1124 12.056C50.6631 11.7293 51.2977 11.566 52.0164 11.566C52.6137 11.566 53.1551 11.6827 53.6404 11.916C54.1351 12.1493 54.5457 12.476 54.8724 12.896L54.4244 13.442C54.2191 13.19 53.9857 12.98 53.7244 12.812C53.4631 12.6347 53.1831 12.4993 52.8844 12.406C52.5857 12.3127 52.2777 12.266 51.9604 12.266C51.4097 12.266 50.9197 12.4013 50.4904 12.672C50.0611 12.9333 49.7204 13.2973 49.4684 13.764C49.2164 14.2213 49.0904 14.7487 49.0904 15.346C49.0904 15.9433 49.2117 16.4753 49.4544 16.942C49.7064 17.4087 50.0471 17.7773 50.4764 18.048C50.9057 18.3093 51.3864 18.44 51.9184 18.44C52.2264 18.44 52.5297 18.3933 52.8284 18.3C53.1271 18.2067 53.4071 18.076 53.6684 17.908C53.9297 17.7307 54.1677 17.516 54.3824 17.264L54.8304 17.81C54.4944 18.23 54.0697 18.5567 53.5564 18.79C53.0524 19.0233 52.5251 19.14 51.9744 19.14ZM57.2745 19V9.774H57.9745V19H57.2745ZM55.5245 12.364V11.72H59.9345V12.364H55.5245Z" fill="white"/>
<rect x="0.5" y="0.5" width="74" height="29" rx="14.5" stroke="white"/>
</svg>
