<svg width="19" height="19" viewBox="0 0 19 19" fill="none" xmlns="http://www.w3.org/2000/svg">
<path d="M12.5 3.02786C12.1897 3.02786 11.8836 2.95565 11.606 2.81693L7.394 0.710932C7.1164 0.572215 6.81033 0.5 6.5 0.5M12.5 3.02786C12.8103 3.02786 13.1164 2.95565 13.394 2.81693L17.053 0.986932C17.2056 0.910691 17.3751 0.874741 17.5455 0.882501C17.7159 0.89026 17.8814 0.94147 18.0265 1.03126C18.1715 1.12106 18.2911 1.24645 18.374 1.39551C18.4569 1.54458 18.5003 1.71237 18.5 1.88293V14.6469C18.4999 14.8326 18.4481 15.0146 18.3505 15.1725C18.2528 15.3304 18.1131 15.4579 17.947 15.5409L13.394 17.8179C13.1164 17.9566 12.8103 18.0289 12.5 18.0289M12.5 3.02786V18.0289M12.5 18.0289C12.1897 18.0289 11.8836 17.9566 11.606 17.8179L7.394 15.7119C7.1164 15.5732 6.81033 15.501 6.5 15.501C6.18967 15.501 5.8836 15.5732 5.606 15.7119L1.947 17.5419C1.79436 17.6182 1.62473 17.6542 1.45426 17.6464C1.28379 17.6385 1.11816 17.5872 0.97312 17.4973C0.828081 17.4074 0.708464 17.2819 0.62565 17.1327C0.542836 16.9835 0.499582 16.8156 0.500003 16.6449V3.88193C0.500102 3.69627 0.551886 3.5143 0.649555 3.35641C0.747225 3.19851 0.886922 3.07092 1.053 2.98793L5.606 0.710932C5.8836 0.572215 6.18967 0.5 6.5 0.5M6.5 0.5V15.4999" stroke="white" stroke-linecap="round" stroke-linejoin="round"/>
</svg>
