<svg width="437" height="39" viewBox="0 0 437 39" fill="none" xmlns="http://www.w3.org/2000/svg">
<rect x="0.5" y="0.5" width="436" height="37.9574" rx="18.9787" fill="#D9D9D9" fill-opacity="0.25" stroke="white"/>
<path d="M41.5 20C41.5 15.8579 38.1421 12.5 34 12.5C29.8579 12.5 26.5 15.8579 26.5 20C26.5 24.1421 29.8579 27.5 34 27.5C38.1421 27.5 41.5 24.1421 41.5 20ZM42.5 20C42.5 22.1673 41.6883 24.1446 40.353 25.646L44.3535 29.6465C44.5488 29.8417 44.5488 30.1583 44.3535 30.3535C44.1583 30.5488 43.8417 30.5488 43.6465 30.3535L39.646 26.353C38.1446 27.6883 36.1673 28.5 34 28.5C29.3056 28.5 25.5 24.6944 25.5 20C25.5 15.3056 29.3056 11.5 34 11.5C38.6944 11.5 42.5 15.3056 42.5 20Z" fill="white"/>
</svg>
